<?xml version="1.0" encoding="utf-8"?>
<!-- Generator: Adobe Illustrator 16.0.0, SVG Export Plug-In . SVG Version: 6.00 Build 0)  -->
<!DOCTYPE svg PUBLIC "-//W3C//DTD SVG 1.1//EN" "http://www.w3.org/Graphics/SVG/1.1/DTD/svg11.dtd">
<svg version="1.1" id="图层_1" xmlns="http://www.w3.org/2000/svg" xmlns:xlink="http://www.w3.org/1999/xlink" x="0px" y="0px"
	 width="567px" height="567px" viewBox="212.6 0 567 567" style="enable-background:new 212.6 0 567 567;" xml:space="preserve">
<style type="text/css">
<![CDATA[
	.st0{fill:#C1B49B;}
]]>
</style>
<g>
	<path class="st0" d="M498.4,494.5l-0.8,5.3l-3.4-0.2c-3.4-0.2-5.7-1.5-7.1-3.7c-2.2,2-4.8,3-7.6,2.8l-1.5-0.1
		c-3.3-0.2-6-1.3-8.2-3.4c-2.4-2.3-3.4-5.2-2.8-8.7l2.5-17.8c0.5-3.4,2.3-6.2,5.3-8.2c2.7-1.8,5.7-2.5,8.9-2.3l16.6,1l-4.4,31.5
		C495.5,493,496.4,494.3,498.4,494.5z M489.9,464l-6.9-0.4c-2.1-0.1-3.3,1.1-3.6,3.8l-2.9,20.4c-0.5,3.5,0.7,5.4,3.8,5.6
		c1.5,0.1,2.8-0.4,4.1-1.5c1.2-1.1,2-2.5,2.2-4.1L489.9,464z"/>
	<path class="st0" d="M526.5,456.5l0.1,5.4l-4.1,0.4l0.6,25.4c0,2.7,1.2,4.1,3.4,4.1l0.1,5.5l-3.4,0.4c-2.8,0.3-5-0.3-6.8-1.8
		c-1.9-1.6-2.9-4-3-7.2l-0.6-25.4l-3.8,0.4l-0.1-5.4l3.8-0.4l-0.3-9.5l9.6-1l0.2,9.5L526.5,456.5z"/>
</g>
</svg>
