<?xml version="1.0" encoding="utf-8"?>
<!-- Generator: Adobe Illustrator 16.0.0, SVG Export Plug-In . SVG Version: 6.00 Build 0)  -->
<!DOCTYPE svg PUBLIC "-//W3C//DTD SVG 1.1//EN" "http://www.w3.org/Graphics/SVG/1.1/DTD/svg11.dtd">
<svg version="1.1" id="图层_1" xmlns="http://www.w3.org/2000/svg" xmlns:xlink="http://www.w3.org/1999/xlink" x="0px" y="0px"
	 width="567px" height="567px" viewBox="212.6 0 567 567" style="enable-background:new 212.6 0 567 567;" xml:space="preserve">
<style type="text/css">
<![CDATA[
	.st0{display:none;fill:#333434;}
	.st1{display:none;opacity:0.61;fill:none;stroke:#C2B59C;stroke-width:3.2416;stroke-miterlimit:10;enable-background:new    ;}
	.st2{display:inline;fill:#C2B59C;}
	.st3{fill:#C2B59C;}
	.st4{fill:#2A2B2B;}
	.st5{display:inline;fill:#333434;}
	.st6{display:inline;}
	.st7{fill:#333434;}
	.st8{display:none;}
]]>
</style>
<g>
	<circle class="st0" cx="496.1" cy="283.5" r="282"/>
	<g class="st8">
		<g class="st6">
			<path class="st4" d="M480.7,432.1c1.9,5.8,1.1,11.7,0.4,17.6c-0.1,0.5-1,1.4-1.4,1.3c-2.1-0.2-4.2-0.5-6.1-1.1
				c-0.6-0.2-1.2-1.5-1.1-2.2c0.4-4.2,0.9-8.3,1.6-12.5c0.2-1.3,1.4-2.4,2.2-3.6C477.7,431.8,479.2,431.9,480.7,432.1z"/>
			<path class="st4" d="M555.8,434.1c-0.5,2.5-1,5.1-1.6,7.6c-2.9-3.2-2.3-6.6,0.5-7.9C555.1,433.9,555.5,434,555.8,434.1z"/>
			<g>
				<path class="st4" d="M389.6,390.1c-2.3-2.5-5-5.1-7.4-7.9c-1.9-2.1-2.4-4.6-1.9-7.5c1.5-8,1-9-7-11.2c-4.2-1.1-6.7-3.4-8.1-7.3
					c-0.4-1.1-0.8-2.2-1.3-3.2c-3.6-6.5-4.5-12.9-0.3-19.5c0.5-0.7,0.5-1.8,0.5-2.8c1-12,0.1-23.8-4.6-35.1c-1.4-3.3-2.3-6.8-3.7-10
					c-4.8-10.6-5.6-21.8-5.8-33.2c-0.3-17.4,1.1-34.4,8.7-50.3c4-8.5,7.5-17.3,12.4-25.3c8.5-13.7,20.5-24.3,33.9-33.2
					c19.7-13.1,40.9-21.9,64.4-24.9c49.8-6.2,94.8,4.6,132.9,38.6c7.4,6.6,13.9,14.4,18.6,23.3c7.1,13.5,14.2,27.3,16.6,42.4
					c1.8,11,1.3,22.4,1.9,33.6c0.6,12.4-3.6,23.6-7.8,34.8c-2.3,6.1-4.7,12.3-5.6,18.7c-1,7.3-0.6,14.8-0.4,22.1
					c0.1,2.3,1.7,4.6,2.7,6.9c0.9,2.2,1.1,4.4,0.1,6.7c-1.8,4.2-3.6,8.5-5.4,12.7c-1,2.3-2.7,3.6-5.1,4.2c-2.2,0.6-4.4,1.4-6.5,2.3
					c-2,0.8-3,2.3-2.8,4.5c0.1,0.9,0,1.8,0.2,2.6c1.7,5.4-0.4,9.6-4.2,13.1c-2.1,1.9-3.4,3.7-3.8,6.9c-0.6,5.9-2.4,11.7-3.3,17.5
					c-1.8,11.2-2.7,22.5,0.6,33.7c0.7,2.3,0.6,5-0.1,7.3c-2.8,9.6-7.3,18.3-13.6,26.1c-1.9,2.4-4.2,3.7-7.1,4.6
					c-2.4,0.7-4.6,2.2-6.5,3.8c-2,1.6-3.7,3.7-5.1,5.9c-7.3,11.3-17.2,19.9-28.3,27.1c-6.2,4-12.5,8-19.3,10.8
					c-4.4,1.8-9.6,2.1-14.4,2.1c-9.5,0-19-0.6-28.5-1c-1,0-2.1-0.4-3-0.9c-15-7.4-29-16.3-40.4-28.7c-3.4-3.7-6.1-8.1-9.2-12.2
					c-2.9-3.7-6-6.9-11.1-7.5c-1.4-0.2-2.8-1.3-3.8-2.3c-7.7-8.6-12.9-18.6-15.7-29.8c-0.4-1.7-0.2-3.7,0.3-5.4
					c2.7-8,2.7-16.1,1.8-24.3c-1-8.8-2.9-17.6-4.3-26.4C389.5,392,389.6,391,389.6,390.1z M532.4,426.3c1.5,2.5,3,5,3.9,6.6
					c0.9-2.7,2.2-6.4,3.8-10.9c-1.6,2.3-3,4.1-4.3,5.9c-0.2-0.2-0.4-0.5-0.6-0.7C534.3,426.9,533.3,426.7,532.4,426.3
					c-0.1-0.1-0.1-0.4-0.2-0.4c-2.7-1.9-3.6,0.7-5.1,2c-0.9,0.8-2,1.5-2.8,2.1c1,3,2.1,6.5,3.3,10c0.2-1.2,0-2.3,0.1-3.5
					c0.2-2.6,0.4-5.3,1-7.9C529.1,426.8,530.4,425.8,532.4,426.3z M463.2,439.6c1.6-3.7,0.6-8.3,4-11.4c-0.9,0.6-1.8,1.2-2.8,1.9
					c-0.6-1-1.2-2-1.8-2.9c-0.6-0.7-1.1-1.4-1.7-2.1c-2.2,0.4-4.4,0.8-6.9,1.2c-0.2-0.3-0.8-1-1.4-1.8c1.5,4.4,1.6,8.6,0.8,12.9
					c-0.2,1.2-1.1,2.2-2.1,4c-0.2,2.8-0.4,6.6-0.8,10.4c-0.1,0.7-1,1.4-1.6,2.1c-0.6-0.5-1.6-1-1.8-1.7c-0.9-3.1-1.6-6.3-2.4-9.4
					c0.2,0,0.3,0,0.5-0.1c-0.5,1.8-1.1,3.6-1.6,5.4c-0.4,0-0.9,0-1.3,0c-0.9-2.4-1.8-4.9-2.5-6.8c-0.8-0.3-1.8-0.3-2.3-0.7
					c-1.7-1.7-1.6-5.5-0.1-7.5c-2.6-2.9-2.5-8.8,0.1-12c-3.2-1.8-3.6-4.7-3.4-7.9c0.3-4,0.7-8,0.8-12c0-2.6-1.5-4.6-4-5.4
					c-2.7-0.9-5.5-1.7-8.2-2.6c-4.1-1.3-7.7-0.3-10.8,1.7c0.5,0.6,1.2,1.1,1.5,1.8c2.3,5.1,3.9,10.3,4.8,16
					c1.5,9.8,7.8,17.5,14.1,25c3.1,3.7,6,7.6,9,11.4c0.5,0.6,1.2,1.6,1.8,1.6c1.9,0,2.1,1.2,2.5,2.5c1.3,4.4,1.6,4.5,5.5,2
					c0.1-0.1,0.4-0.1,0.5-0.1c3.5,6.3,3.5,6.3,8,3.2c1.2,2.1,1.8,5.1,3.7,6.2c1.6,1,4.4,0,7.1-0.1c1,1.3,2.3,3.4,4.1,4.9
					c2.3,1.9,4.4,0,5.5-1c2.1,1.3,3.7,2.8,5.5,3.1c0.8,0.1,1.9-2.4,2.9-3.8c-0.2-0.1-0.4-0.3-0.6-0.4c-2.2,2.3-3.8,2.1-5.6-0.9
					c-1.3-2.2-2.2-4.7-3.4-7.3c0,2.2,0.2,4.2,0,6c-0.3,2.6-1.9,3.2-3.7,1.4c-1.4-1.4-2.5-3.2-3.3-5c-1-2.3-1.6-4.8-2.6-7.9
					c0,2.4,0.3,4-0.1,5.6c-0.3,1.3-1.2,3.5-2,3.6c-1.3,0.2-3.2-0.8-4-1.8c-2.7-3.5-3.4-7.7-3.1-12c0.1-1.5,0.8-2.3,2.5-2
					c0.7,0.2,1.5,0.3,1.4,0.3c-0.3-1.4-0.8-2.8-0.9-4.2c-0.1-1.2,0.1-2.5,0.2-3.7V439.6z M545.2,424.6c-0.6-0.5-1.2-1.1-2.4-2.1
					c3.1,6.4,1.8,11.9-0.2,17.7c1-0.4,1.9-0.8,3.2-1.4c1.4,5.2,1.1,10-1.3,14.7c-0.3,0.5-1.2,1.1-1.5,1c-0.6-0.2-1.3-0.9-1.4-1.5
					c-0.4-1.8-0.6-3.6-0.8-5.4c-0.6,2.8-1.4,5.4-2.7,7.8c-0.6,1.1-2.3,1.7-3.5,2.5c-0.7-1.3-1.9-2.6-2.1-4c-0.3-3-0.1-6-0.1-8.9
					c-1.2,0-2.5,0-3.9,0c-0.4,0.6-0.9,1.6-1.1,1.9c1.2,0.5,3.4,0.9,3.6,1.7c0.9,4.8,0,9.4-3.2,13.3c-0.7,0.9-2.6,1.6-3.4,1.3
					c-1-0.4-2-2.1-2.1-3.3c-0.3-3.6-0.1-7.2-0.1-10.7c-0.5-0.3-1.8-0.6-2.4-1.4c-0.7-0.9-0.7-2.2-1.2-4.1c0.1,1.7,0.1,2.7,0.3,3.6
					c0.3,1.9-0.5,3-2.3,3.3c-1.4,0.3-2.8,0.5-4.3,0.6c-1.5,0.2-2.4-0.4-2.4-2c-0.2-5.4-0.5-10.8-0.7-15.9c-0.3,0.2-1.1,0.7-2.1,1.3
					c0.5,2.8,1.3,5.8,1.6,8.8c0.9,8,0.8,8-7.2,8.7c-4.3,0.4-4.7,0-5-4.3c0-0.5-0.1-1-0.2-1.4c-0.4,1.3-0.3,2.7-0.7,4
					c-0.2,0.7-1,1.8-1.6,1.8c-3.1,0.1-6.1,0.1-9.2-0.1c-1.9-0.1-2.9-1.1-2.7-3.2c0.5-5.1,0.8-10.3,1.1-15c-0.8-0.5-1.7-1.2-2.6-1.8
					c-1.5-0.1-3-0.3-4.5-0.4c-0.9,0.5-1.8,1-2.8,1.5c-0.4-0.7-0.8-1.4-0.9-1.5c-0.2,4-0.4,8.4-0.6,12.8c-0.1,2.6-0.6,4.7-3.7,3.8
					c0.4,1.3,0.8,2.5,1.2,3.7c2-1.4,5.9-1.3,8.1,0.2c0.5,0.3,1.3,0.4,1.9,0.3c3.9-1.2,7.2,0.7,7.8,4.8c0.5,3.9,0.5,7.8,2.5,11.4
					c1.9,3.4,2.9,3.7,5.3,0.8c0.3-0.3,0.6-0.7,0.9-1c2.9,4.1,3.8,4,6.8-0.5c0.7,1.1,1.9,3.6,2.2,3.5c2.2-0.7,4.3-2,6.4-3.1
					c1.5,2.2,3.1,2.7,5.1,0.7c1.6-1.6,2.9-3.5,4.3-5.3c5.1,3.1,5.1,3.1,11.1-5.2c1.5,0.4,2.5,3.3,4.5,1c1.2-1.4,2.3-3,3.4-4.5
					c1,0.8,1.9,1.4,3.2,2.5c1.9-3.7,4.2-7,7.7-9.1c0.1-0.1,0.2-0.3,0.3-0.5c1.4-2,2.8-4.1,4.2-6.1c4.5-6.3,9.3-12.3,13.3-18.8
					c2.2-3.7,4-8.2,4.2-12.4c0.2-5.8,3.3-10,4.8-14.8c2.3,0.3,4.1,0.6,6,0.9c-2.3-1-4.8-1.2-6.9-2.3c-3.3-1.7-6.6-2-10-1
					c-2.6,0.8-5.3,1.3-7.6,2.6c-1.7,0.9-3.6,2.8-3.8,4.5c-0.5,3.4-0.3,7.1,0.2,10.5c0.5,3.7,0.5,7-2,10c3.5,3.3,2.1,7.2,1.4,10.9
					c-0.1,0.7-1.5,1.4-2.4,1.7c-0.5,0.1-1.2-0.9-1.9-1.4c-0.3,1.3-0.7,2.5-1,3.7c3.4,1.3,3.3,9-0.7,12.6c-1.4-3.9-2.2-7.7-1.6-10.7
					c-0.9-1.6-1.7-2.5-1.8-3.4C545.1,431.1,545.2,427.8,545.2,424.6c0.7-1.2,1.5-2.3,2.7-3.9c1.1,1.7,2,3.1,2.8,4.4
					c0.5-1.2,1.1-2.5,1.7-3.8C547.8,419.3,546.1,420,545.2,424.6z M561.2,345.6c9.5,0.5,17.5,0,25-3.6c4-1.9,7.2-4.8,8.7-8.9
					c3-8.4,4.6-17.2,4.6-26.2c-0.1-9-3.7-15.8-11.5-20.1c-6.9-3.8-13.9-7.3-21-10.6c-3-1.4-6.4-2.8-9.6-2.8
					c-8.5-0.1-17.1,0.5-25.6,1c-2.2,0.1-4.9,0.5-6.5,1.9c-4.4,3.8-7.8,8.5-9.5,14.1c-2.5,7.9-2.3,16-0.4,23.9
					c2.5,10.6,8.2,19.4,17.8,24.7C542.1,344,552.2,345.7,561.2,345.6z M428.1,345.4c9.7,0.4,19.3-1,28.1-5.9
					c11.5-6.5,20.6-14.9,22.4-29.1c1.5-11.6,0.6-22.4-7.8-31.6c-2.4-2.7-5.1-4.2-8.6-4.4c-7.3-0.4-14.6-1-21.9-1.4
					c-1.9-0.1-3.9,0.1-5.7,0.5c-11.3,3-21.9,7.8-31.4,14.6c-4.1,3-7.6,6.3-8.6,11.8c-2.3,13.6,0.6,26.1,7.5,37.8
					c0.9,1.5,2.7,2.7,4.3,3.6C413.2,344.9,420.4,345.9,428.1,345.4z M498.6,345.5c0.6,8.6,1.1,18.1,1.8,27.5
					c0.5,6.3,1.2,12.6,2.3,18.8c0.7,3.9,5,6.3,8.6,4.7c5.7-2.5,10.6-6.3,11.6-12.8c0.6-3.7,0.7-7.8-0.2-11.4
					c-3.2-12.5-6.8-24.9-10.8-37.2c-1-3.2-3.5-6.1-6-8.5c-3.1-2.9-6.1-1.6-6.4,2.7C499.1,334.4,498.9,339.4,498.6,345.5z
					 M497.4,337.8c-0.1,0-0.3,0-0.4,0c0-3.6,0.2-7.1-0.1-10.6c-0.2-2.5-1.8-3.1-3.4-1.1c-2.3,2.8-4.4,5.8-6,9.1
					c-3.7,7.4-7,14.9-10.4,22.4c-1.3,3-2.7,6-3.3,9.1c-1,4.8-1.2,9.7-1.9,14.6c-0.9,6.4,2.2,10.8,7.3,13.9c2.4,1.4,5.3,2.3,8.1,2.8
					c3.1,0.5,6.8-3.3,7-7.4c0.4-6.6,0.5-13.3,0.9-19.9C495.9,359.6,496.6,348.7,497.4,337.8z M447,423.3c-2,2-0.6,5-1.1,7.5
					c-0.3,1.6,1.1,4.1-1.4,4.6c-2.8,0.6-3.3-1.9-3.8-4c0-0.1-0.2-0.1-0.9-0.5c0,2.6,0,4.9,0,7.1c1.1-0.8,2.1-2.1,2.5-1.9
					c1.3,0.6,2.5,1.6,3.9,2.7c-0.1,0,0.6-0.4,0.8-0.5C447,433,447,428.1,447,423.3z M506.2,433c0.2-0.2,0.4-0.4,0.5-0.7
					c-1.6-1-3.3-3-4.6-2.7c-2.3,0.4-4.3,2.3-6.7,3.6c-0.3-0.2-0.9-0.6-1.5-1c0.5,1.8,1,3.6,1.3,5.3c0.3,1.8,0.3,3.7,0.5,5.5
					c0.4-0.9,0.4-1.7,0.5-2.5c0.1-1.7,0.2-3.5,0.5-5.2C497.6,430.7,501.3,429.8,506.2,433z M541.3,440.5c-3.3,0.9-4.7-0.1-4.5-2.2
					c-0.3,1.3-0.8,3.6-1.3,5.9c0.5-0.2,1.3-0.6,2.2-0.9c0.9-0.3,1.8-0.3,3-0.5C540.7,442.4,540.9,441.7,541.3,440.5z M442.7,419.8
					c-1.5,0.3-2.7,0.6-4.1,0.9c0.7,1.5,1.2,2.7,1.7,3.9C441,423.1,441.7,421.7,442.7,419.8z M518.3,430.6c-2.1,3.2-0.8,6.6,0,9.7
					C518.3,437.3,518.3,433.9,518.3,430.6z"/>
				<path class="st4" d="M463.2,439.5c-0.1,0.2-0.3,0.5-0.4,0.7c-0.4,1.7,0.4,4.2-2.7,4c-3.6-0.2-5.8-2-5.6-5
					c0.2-3.3,0.5-6.6,1.2-9.9c0.5-2.5,2.3-4.1,5.1-4.2c0.6,0.7,1.1,1.4,1.7,2.1C462.7,431.3,462.9,435.5,463.2,439.5L463.2,439.5z"
					/>
				<path class="st4" d="M512.8,458.7c-1.2,2.9-2,5.5-3.3,7.9c-0.6,1.1-2.1,1.7-3.2,2.5c-0.6-1.2-1.4-2.4-1.6-3.7
					c-0.3-2.2-0.1-4.4-0.1-6.6c-1.3,3.4-2.7,6.9-4.2,10.8c-4.4-2.9-2.7-7.2-4-10.7c-0.4,2.3-0.6,4.6-1.3,6.6
					c-0.5,1.3-1.7,2.3-2.6,3.5c-0.8-1-1.9-1.9-2.2-3c-1-3.4-1.8-6.8-2.5-10.3c-0.4-2,0.7-2.9,2.6-2.6c1.9,0.3,3.8,0.8,5.7,1.2
					c0.4,0.1,0.8-0.2,1.2-0.4c2.1-1.1,6.7-0.5,7.7,1c2.1-2.6,5.3-3.1,8-1.2c1.5-2.8,4.2-2.6,6.8-2.3c0.6,0.1,1.6,1.6,1.5,2.2
					c-1.1,4.1-2.3,8.2-3.9,12.2c-0.4,1-2,1.5-3.1,2.2c-0.6-1.2-1.5-2.4-1.7-3.7C512.4,462.5,512.7,460.7,512.8,458.7z"/>
				<path class="st4" d="M452.8,442.7c1.9,0.7,3.7,1.3,5.4,2c0.5,0.2,1.2,0.7,1.2,1.1c0,3.6,0.1,7.2-0.4,10.8
					c-0.2,1.5-1.9,2-3.4,0.8C452.7,454.9,449.9,447.4,452.8,442.7z"/>
			</g>
		</g>
	</g>
	<g class="st8">
		<path class="st2" d="M356.3,447.8c-2-0.1-3.8-0.9-5.6-2.3l-5.7-4.9l2.5-2.5l3.9,3.3c1.5,1.3,2.9,1.1,4.3-0.5
			c0.8-0.9,1.2-1.9,1.2-3l0.2-6.1c0.1-2,0.7-3.7,1.9-5.1c1.5-1.8,3.4-2.6,5.5-2.4c1.9,0.1,3.7,0.9,5.3,2.3l4,3.4l-2.5,2.5l-2.9-2.4
			c-1.2-1-2.1-1.1-2.8-0.3c-0.4,0.4-0.6,1-0.6,1.7l-0.6,7.9c-0.2,2.4-1,4.4-2.3,6C360.5,447,358.6,447.9,356.3,447.8z"/>
		<path class="st2" d="M374.1,458.8l-2.3,2.7L371,461c-1.9-1.3-3-2.8-3.4-4.5s0.1-3.3,1.4-4.9l10.7-12.9l-1.5-1l2.3-2.7l6.6,4.7
			l-12.9,15.6C373.1,456.6,373.1,457.8,374.1,458.8z M392.6,433c-0.6,0.8-1.3,1.3-2.3,1.5c-0.9,0.2-1.8,0.1-2.5-0.4
			s-1.1-1.2-1.3-2.2c-0.1-0.9,0.1-1.8,0.7-2.7c0.6-0.8,1.3-1.3,2.2-1.5c0.9-0.2,1.7-0.1,2.5,0.4s1.1,1.2,1.3,2.2
			C393.4,431.3,393.2,432.2,392.6,433z"/>
		<path class="st2" d="M399.7,473.8l-2,3l-2.4-1.3c-1.4-0.8-2.3-1.7-2.7-2.9c-0.5-1.4-0.2-2.8,0.7-4.3l8.1-12.3
			c0.4-0.7,0.7-1.4,0.6-2.1c-0.1-0.9-0.4-1.5-1.1-1.9l-2.2-1.2l-12.9,19.5l-5.6-3.1l12.9-19.5l-1.6-0.9l2-3l9.4,5.2
			c2.3,1.3,3.8,2.8,4.5,4.5c0.8,2,0.5,4-0.9,6.2l-7.3,11.2c-0.5,0.9-0.8,1.5-0.7,1.9C398.7,473.1,399,473.5,399.7,473.8z"/>
		<path class="st2" d="M431.8,462l-1.6,3.2l-6.3-2.5c-0.6-0.2-1.2-0.1-1.8,0.3c-0.6,0.5-1.1,1-1.4,1.7l-6.1,12.5
			c-0.3,0.7-0.3,1.4,0,2.1s0.8,1.2,1.5,1.5c0.9,0.4,1.9,0.3,2.9-0.1c1-0.4,1.7-1.1,2.2-2.1l3,1.2c-0.9,1.8-2.3,3.2-4.2,4
			c-1.9,0.8-3.7,0.9-5.4,0.2l-0.9-0.4c-1.9-0.8-3.3-1.9-4.3-3.5c-1.1-1.8-1.2-3.7-0.4-5.8c0.1-0.2,0.1-0.4,0.2-0.5l5.3-10.6
			c1-2.1,2.7-3.4,4.9-4.1c2.1-0.5,4.1-0.4,6.1,0.4L431.8,462z"/>
		<path class="st2" d="M451.2,475.3l-3.1-0.8c0.4-1,0.4-2,0-2.8c-0.4-0.9-1-1.4-1.8-1.8c-1.1-0.4-2.1-0.2-3,0.5
			c-0.9,0.8-1.5,1.8-1.9,3c-0.6,2.2-0.2,3.5,1.3,3.8l5.7,1.6l-1.2,3.3l-5.6-1.5c-0.8-0.2-1.6,0-2.3,0.8c-0.7,0.7-1.3,1.7-1.6,2.8
			c-0.3,1.1-0.3,2,0,2.9c0.3,0.9,1,1.4,2,1.6c0.8,0.2,1.7,0,2.6-0.5c0.9-0.5,1.5-1.3,1.9-2.4l3.1,0.8c-0.8,2.3-2.2,3.8-4.1,4.7
			c-1.8,0.8-3.7,0.9-5.8,0.3c-2-0.5-3.6-1.7-4.7-3.5c-1.2-1.8-1.5-3.8-0.8-5.8c0.8-2.3,2.4-3.9,4.7-4.8c-1.2-2.2-1.4-4.3-0.7-6.3
			c0.8-2.2,2.3-3.7,4.5-4.5c2-0.8,4-0.9,6.1-0.4c2.1,0.6,3.7,1.6,4.6,3.2C451.9,471,452,473,451.2,475.3z"/>
		<path class="st2" d="M481.2,495.4l-0.6,3.5l-11.5-1.1l0.6-3.5l2.6,0.2l3.4-19.5l-2.7-0.3l0.6-3.5l9,0.8l-4,23L481.2,495.4z"/>
		<path class="st2" d="M505,472.4l-0.2,3.5l-7.3,0.1l-0.5,9c2.2,0,4.1,0.5,5.7,1.8c1.8,1.4,2.6,3.3,2.4,5.7l-0.6,8.6
			c-0.1,2.1-1,3.9-2.8,5.4c-1.7,1.5-3.7,2.3-6,2.3h-1c-1.8,0-3.4-0.7-4.6-2.1c-1.2-1.4-1.8-3.2-1.7-5.3l3.2-0.1c0,1.1,0.3,2,0.9,2.8
			c0.6,0.8,1.5,1.2,2.4,1.1c2,0,3.1-1.4,3.3-4.1l0.6-9.5c0.1-2.1-0.5-3.1-1.8-3.1l-6.6,0.1l1-16.1L505,472.4z"/>
		<path class="st2" d="M545,466.7l3.6,30.7c0.2,2.1-0.4,4-1.8,5.8c-1.4,1.8-3.3,2.9-5.6,3.4l-6.3,1.2l-0.4-3.5l5.9-1.2
			c1.6-0.3,2.2-1.5,2-3.6l-0.6-4.9l-2.1,0.4c-2.4,0.5-4.5,0.2-6.3-0.8c-2-1.1-3.1-3-3.4-5.6l-1.8-15.1l-1.7,0.3l-0.4-3.5l7.9-1.6
			l2.3,19.9c0.3,2.2,1.2,3.1,2.9,2.8l2.1-0.4l-2.7-23.2L545,466.7z"/>
		<path class="st2" d="M567.8,467.2l-3,1c-0.2-1.1-0.8-1.8-1.6-2.3c-0.8-0.5-1.6-0.7-2.5-0.5c-1.1,0.3-1.9,1-2.2,2.1
			c-0.3,1.1-0.3,2.3,0.1,3.6c0.7,2.1,1.8,3,3.2,2.5l5.6-1.8l0.8,3.4l-5.6,1.8c-0.8,0.3-1.3,0.9-1.5,1.9s-0.1,2.1,0.2,3.2
			c0.3,1,0.9,1.8,1.6,2.4c0.7,0.5,1.6,0.6,2.5,0.2c0.8-0.3,1.4-1,1.9-1.9c0.5-0.9,0.5-1.9,0.3-3.1l3-1c0.6,2.3,0.3,4.4-0.9,6.2
			c-1.1,1.6-2.6,2.8-4.7,3.5c-2,0.6-3.9,0.5-5.8-0.3c-2-0.9-3.3-2.3-3.8-4.4c-0.6-2.4-0.2-4.6,1.3-6.6c-2.2-1.2-3.6-2.8-4.1-4.9
			c-0.5-2.2-0.1-4.3,1.3-6.2c1.2-1.8,2.9-3,4.9-3.7c2.1-0.7,4-0.6,5.6,0.1C566.1,463.3,567.3,464.8,567.8,467.2z"/>
		<path class="st2" d="M599.1,470.4l1.3,3.3l-2,1c-2,0.9-3.8,1-5.3,0.1c-0.6,1.9-1.8,3.2-3.5,4l-0.9,0.4c-1.9,0.9-3.9,1.1-5.8,0.6
			c-2.1-0.6-3.6-1.9-4.4-4.1l-4.2-11.1c-0.8-2.2-0.7-4.3,0.5-6.4c1-1.9,2.5-3.3,4.4-4.2l9.9-4.7l7.5,19.6
			C597,470.4,597.9,470.9,599.1,470.4z M584.5,455.5l-4.1,1.9c-1.2,0.6-1.5,1.7-0.9,3.3l4.8,12.7c0.8,2.2,2.2,2.9,4,2
			c0.9-0.4,1.5-1.1,1.9-2.2c0.4-1.1,0.3-2.1,0-3.1L584.5,455.5z"/>
		<path class="st2" d="M608.7,437.2l3.4,6.5l-2.9,1.8l-1.7-3.1c-0.9,1.3-1.4,2.9-1.4,4.7c0,1.9,0.4,3.6,1.2,5.2l6.9,13l-5.4,3.4
			L598,448l-1.5,1l-1.6-3.1l6.9-4.3l1.1,2c0.6-2.2,2-3.9,4.1-5.3L608.7,437.2z"/>
		<path class="st2" d="M637.7,446.2c-0.4,1.9-1.6,3.6-3.3,5l-5.9,4.7l-2-2.9l4-3.2c1.5-1.2,1.7-2.6,0.4-4.3
			c-0.7-0.9-1.6-1.5-2.7-1.7l-6-1.4c-2-0.5-3.5-1.4-4.6-2.8c-1.4-1.8-1.9-3.8-1.3-5.9c0.5-1.9,1.5-3.5,3.2-4.8l4.1-3.3l2,2.9
			l-2.9,2.3c-1.2,1-1.5,1.9-0.9,2.7c0.4,0.4,0.9,0.8,1.5,0.9l7.6,2.1c2.3,0.7,4.2,1.8,5.5,3.4C637.7,442,638.2,444,637.7,446.2z"/>
	</g>
	<g class="st8">
		<path class="st2" d="M250,287.5l6.8-0.1l0.9,8.9l69.4-1.4l1.2,12.4l-69.4,1.3l0.9,8.9l-6.8,0.1L250,287.5z"/>
		<path class="st2" d="M325.5,235.5l6.7,1.6l-0.7,4.8c-0.5,3-1.7,5.3-3.7,6.9c-2.2,1.8-5,2.3-8.3,1.5l-26.4-6.2
			c-5.1-1.2-7.9-0.1-8.4,3.2l-0.8,5l44.1,10.5l-1.9,12.3L258.6,259l-0.6,3.6l-6.7-1.6l2.5-15.8l23.1,5.5l0.8-5
			c0.8-4.9,2.6-8.6,5.4-11.1c3.2-2.9,7.5-3.8,12.8-2.5l25.6,6c1.5,0.4,2.5,0.3,3.2-0.2C325,237.5,325.3,236.7,325.5,235.5z"/>
		<path class="st2" d="M314,183.2l-2.5,5.7c-1.9-1-3.7-1.3-5.5-0.8c-1.8,0.5-3.1,1.5-4,2.9c-1.1,2-1.1,4,0.2,6c1.2,2,3,3.5,5.3,4.5
			c4,1.8,6.6,1.4,7.8-1.3l4.7-10.5l6,3.3l-4.6,10.4c-0.7,1.5-0.4,3.1,0.8,4.8c1.2,1.6,2.8,2.9,4.9,3.9c2,0.9,3.8,1.1,5.5,0.8
			c1.7-0.3,2.9-1.5,3.6-3.3c0.6-1.6,0.5-3.3-0.3-5.1c-0.7-1.8-2.1-3.3-4.1-4.4l2.5-5.7c4.1,2.2,6.8,5.4,7.9,9.4
			c1,3.7,0.6,7.5-1.1,11.4c-1.7,3.7-4.4,6.4-8.1,8.1c-3.9,1.8-7.7,1.7-11.4-0.2c-4.3-2.2-6.9-5.8-8-10.6c-4.7,1.7-8.8,1.5-12.5-0.4
			c-3.9-2.2-6.4-5.5-7.4-10c-1-4.1-0.6-8.1,1.1-11.9c1.8-4,4.3-6.6,7.5-8C305.9,180.6,309.8,181,314,183.2z"/>
		<path class="st2" d="M354.9,101.4l4.5,5.6c2.8,3.6,4.2,7.7,4,12.5c5-0.4,9.2,1.6,12.8,6l7.5,9.4c2.8,3.4,4.1,7.3,4,11.7
			c-0.1,4.4-1.6,7.9-4.5,10.6l-15,14.1l-43.4-54.1l-2.6,2.4l-4.4-5.4l16.6-15.6c2.9-2.7,6.3-3.8,10.4-3.3
			C348.8,95.9,352.2,97.9,354.9,101.4z M344.6,108.4c-1.2-1.5-2.7-2.4-4.5-2.6c-1.8-0.3-3.3,0.2-4.6,1.4l-1.8,1.7l15.9,19.8l2.3-2.2
			c1-1.3,1.4-2.8,1.4-4.6c-0.1-1.8-0.6-3.3-1.7-4.7L344.6,108.4z M366,132.4c-1.2-1.4-2.6-2.3-4.4-2.6c-1.7-0.3-3.2,0.1-4.4,1.2
			l-3.2,3l18.9,23.6l2.9-2.7c1.3-1.2,1.9-2.8,1.9-4.7c0-1.9-0.6-3.7-1.8-5.2L366,132.4z"/>
		<path class="st2" d="M434,117.2l2.7,6.4l-3.9,2c-3.9,2-7.3,2.2-10.4,0.6c-1.1,3.8-3.3,6.5-6.6,8.2l-1.7,0.9
			c-3.7,1.9-7.5,2.5-11.3,1.6c-4.2-0.9-7.1-3.5-8.9-7.7l-9-21.4c-1.7-4.1-1.6-8.3,0.4-12.5c1.8-3.7,4.6-6.6,8.4-8.5l19.1-9.9
			l16,37.8C429.9,117.5,431.6,118.3,434,117.2z M404.4,89.1l-7.9,4.1c-2.4,1.2-2.9,3.4-1.5,6.6l10.4,24.5c1.8,4.3,4.4,5.5,7.9,3.7
			c1.7-0.9,2.9-2.3,3.5-4.4c0.6-2,0.5-4-0.3-6L404.4,89.1z"/>
		<path class="st2" d="M465.7,63l2,14.3l-6.6,1.5l-1-6.8c-2.5,1.8-4.4,4.4-5.7,7.8c-1.3,3.5-1.6,6.9-1.1,10.3l4.2,28.5l-12.1,2.7
			l-6.5-45.2l-3.4,0.8l-1-6.9l15.5-3.5l0.7,4.4c2.5-3.6,6.2-5.9,11.1-7.1L465.7,63z"/>
		<path class="st2" d="M527.2,77.5l-2.8,23c-0.6,4.8-2.9,8.5-7,11c-3.4,2.1-7.4,3.1-11.9,2.9c-4.3-0.2-7.5-1.7-9.7-4.6
			c-2.7,2.7-6.1,4-10.3,3.8l-4.6-0.2l0.8-6.9c2.7,0,4.2-1.5,4.5-4.5l7.7-64.3l17.2,0.7l-0.7,6.9l-4.7-0.2l-2,16.7l8.9,0.4
			c4.2,0.2,7.8,1.5,10.6,4.1C526.5,69.4,527.8,73.1,527.2,77.5z M515.1,74.5c0.4-3.4-0.7-5.2-3.3-5.3l-8.9-0.4l-3.7,30.8
			c-0.3,2.1,0.2,4,1.4,5.5c1.2,1.6,2.8,2.4,4.7,2.5c3.9,0.2,6.1-2.1,6.7-6.7L515.1,74.5z"/>
		<path class="st2" d="M574.6,91l-5.9-1.8c0.8-2,0.9-3.8,0.2-5.5c-0.7-1.7-1.8-2.9-3.4-3.6c-2.1-0.9-4.1-0.6-6,0.9
			c-1.8,1.4-3.1,3.4-3.9,5.8c-1.3,4.2-0.6,6.7,2.2,7.6l11,3.4l-2.6,6.3l-10.9-3.4c-1.6-0.5-3.1-0.1-4.6,1.3s-2.6,3.1-3.3,5.3
			c-0.6,2-0.7,3.9-0.1,5.6c0.5,1.7,1.8,2.8,3.7,3.2c1.6,0.4,3.3,0.1,5.1-0.9c1.7-0.9,3.1-2.5,3.9-4.6l5.9,1.8
			c-1.7,4.4-4.6,7.3-8.4,9c-3.6,1.4-7.4,1.5-11.5,0.2c-3.9-1.2-6.9-3.6-9-7.1c-2.2-3.7-2.6-7.4-1.1-11.4c1.7-4.5,4.9-7.6,9.6-9.1
			c-2.2-4.4-2.5-8.6-1-12.4c1.7-4.2,4.7-7,9.1-8.5c4-1.4,7.9-1.5,12-0.3c4.1,1.3,7.1,3.5,8.8,6.5C576.3,82.7,576.4,86.6,574.6,91z"
			/>
		<path class="st2" d="M625.9,102.7l-8.4,11.7l-5.8-3.5l3.9-5.6c-3-0.5-6.2,0.1-9.5,1.8c-3.3,1.6-5.9,3.9-7.9,6.7l-16.6,23.5
			l-10.7-6.4l26.4-37.3l-3-1.8l4-5.7l13.7,8.1l-2.5,3.7c4.3-0.9,8.6-0.1,12.9,2.5L625.9,102.7z"/>
		<path class="st2" d="M703.9,151.5l-5.8,3.7l-8.7-11.5c-0.7-0.9-1.7-1.3-3.2-1.3s-2.9,0.5-4.4,1.5l-40.9,26.2
			c-2.3,1.5-3.7,3.2-4,5.1c-0.3,1.6,0.2,3.1,1.5,4.6c1.2,1.4,2.9,2.2,4.9,2.5c2,0.3,4-0.2,5.8-1.3l3.8,5c-3.4,2.2-7.1,3-11.1,2.5
			s-7.1-2.2-9.3-5.1c-1.7-2.3-2.8-3.9-3.3-4.9c-1.6-3.2-2.2-6.4-1.6-9.6c0.6-3.6,2.6-6.4,5.8-8.5l39.4-25.3c3.9-2.5,7.9-3.3,12-2.5
			c3.8,0.9,6.9,2.9,9.4,6.2L703.9,151.5z"/>
		<path class="st2" d="M722.2,187.7l-59.1,22.8c-3.5,1.3-4.7,3.3-3.8,6l-6.4,2.6l-0.9-1.8c-2-4.1-2.4-7.7-1.4-11
			c1-3.2,3.4-5.6,7.1-7l52.7-20.2l-1.4-3l6.5-2.5L722.2,187.7z"/>
		<path class="st2" d="M672.4,264.8l-6.9,1l-4.8-21.7c-1-4.5-0.5-8.4,1.4-11.6c2.1-3.5,5.8-5.5,10.9-6.2l29.4-4.2l-0.7-3.2l6.9-1
			l3.4,15.2l-38,5.5c-1.9,0.3-3.5,1-4.7,2.1c-1.2,1.1-1.7,2.4-1.4,3.9l1,4.4l45.2-6.4l2.7,12.2l-45.2,6.4L672.4,264.8z"/>
		<path class="st2" d="M701.2,319.7l-23-3.3c-4.8-0.7-8.4-3.1-10.8-7.3c-2.1-3.5-2.9-7.5-2.6-12c0.3-4.3,1.9-7.5,4.9-9.6
			c-2.7-2.7-3.8-6.2-3.6-10.4l0.3-4.5l6.9,1c0,2.7,1.4,4.2,4.4,4.7l64.1,9.3l-1.1,17.2l-6.9-0.9l0.3-4.7l-16.6-2.4l-0.6,8.9
			c-0.3,4.2-1.7,7.7-4.4,10.5C709.4,319.2,705.6,320.4,701.2,319.7z M704.5,307.8c3.4,0.5,5.2-0.6,5.4-3.2l0.6-8.9l-30.7-4.5
			c-2.1-0.3-4,0.1-5.6,1.3c-1.6,1.2-2.5,2.7-2.6,4.6c-0.3,3.9,1.9,6.2,6.5,6.8L704.5,307.8z"/>
	</g>
	<g>
		
			<image style="overflow:visible;opacity:0.75;enable-background:new    ;" width="721" height="304" xlink:href="7E26AC86.png"  transform="matrix(0.2377 0 0 0.2376 412.6248 355.8213)">
		</image>
		<g>
			<g>
				<g class="st8">
					<path class="st2" d="M543.3,312.4l-0.1-1.1l-0.1-1.1l-0.2-1l-0.2-1.1l-0.3-1l-0.3-1l-0.3-1l-0.4-0.9l-0.4-0.9l-0.4-0.8
						l-0.4-0.7l-0.4-0.7l-0.4-0.7l-0.8-0.9l-0.7-0.8l-0.8-0.8l-0.8-0.7l-0.9-0.6l-0.9-0.6l-1-0.5l-1-0.5l-1-0.4l-1-0.3l-1.1-0.3
						l-1.2-0.2l-1.1-0.2l-1.2-0.1h-1.3h-1.3l-1.6,0.1l-1.3,0.2l-1.1,0.1l-1,0.3l-1.9,0.7l-2.5,1l-1.2,0.4l-1,0.3l-0.8,0.1h-0.7h-0.7
						l-0.6,0.1l-0.7,0.1l-0.7,0.3l-0.3,0.2l-0.3,0.3l-0.3,0.4l-0.3,0.5l-0.2,0.3l-0.1,0.3l-0.1,0.3v0.3v0.4l0.1,0.3l0.2,0.3l0.2,0.3
						l0.2,0.3l0.2,0.4l0.1,0.4l0.1,0.4l0.1,0.4l0.1,0.4v0.4v0.4l-0.1,0.8l-0.2,0.8l-0.2,0.7l-0.2,0.8l-0.4,0.9L506,309l-0.2,0.9
						l-0.2,0.9l-0.2,0.8l-0.1,0.8l-0.1,0.8l-0.1,0.8l-0.1,1.5l0.1,1.6l0.2,1.6l0.3,1.5l0.4,1.6l0.5,1.5l0.5,1.5l0.6,1.6l0.7,1.5
						l0.7,1.6l0.8,1.5l0.8,1.6l0.5,1l0.4,1l0.3,1l0.3,1l0.2,1v1v1v1l-0.1,1l-0.2,1l-0.3,1.1l-0.3,1l-0.3,1l-0.4,1l-0.5,1l-0.5,1
						l-0.7,1.2l-0.7,1.2l-0.8,1.3l-0.8,1.3l-0.7,1.2l-0.8,1.2l-0.8,1.2l-0.7,1.1l-1.4,2.2l-1.3,2.1l-1.3,2l-1.3,2l-1.3,2l-1.4,2
						l-0.9,1.3l-0.2-0.1l-0.6-0.5l-0.5-0.5l-1.1-1.2l-1-1.2l-0.9-1.4l-0.8-1.4l-0.8-1.4l-0.7-1.5l-0.7-1.5l-0.6-1.5l-0.6-1.5
						l-0.6-1.5l-1-2.9l-0.9-2.6l-0.5-1.5l-0.4-1.8l-0.3-2l-0.3-2.2l-0.1-1.2l-0.1-1.2v-1.2v-1.1l0.1-1.2l0.1-1.1l0.2-1.1l0.3-1.1
						l0.2-0.7l0.2-0.6l0.2-0.5l0.3-0.5l0.5-0.8l0.5-0.7l0.6-0.7l0.6-0.7l0.6-0.8l0.6-0.9l0.8-1.4l0.7-1.4l0.6-1.4l0.5-1.5l0.4-1.6
						l0.3-1.5l0.2-1.6l0.1-1.6v-1.6l-0.1-1.5l-0.2-1.5l-0.2-1.6l-0.3-1.5l-0.5-1.5l-0.5-1.4l-0.6-1.4l-0.4-0.8l-0.5-0.8l-0.5-0.7
						l-0.5-0.8l-0.6-0.8l-0.6-0.7l-0.7-0.7l-0.8-0.7l-0.8-0.7l-0.9-0.6l-1-0.7l-1-0.6l-1.1-0.6l-1.2-0.6l-1.3-0.6l-1.4-0.5l-2.6-1.1
						l-2.1-0.9l-1-0.4l-0.9-0.4l-0.9-0.5l-0.8-0.5l-0.7-0.5l-0.8-0.6l-0.7-0.6l-0.7-0.7l-0.7-0.8l-0.7-1l-0.8-1.1l-0.8-1.2l-0.9-1.2
						l-0.9-1.2l-1-1.1l-1.1-1l-1.2-0.9l-1.2-0.9l-0.6-0.4l-0.7-0.3l-0.6-0.4l-0.6-0.2l-0.7-0.3l-0.6-0.2l-0.7-0.2l-0.7-0.1l-0.7-0.1
						l-0.7-0.1l-0.7-0.1h-0.7h-0.7l-0.7,0.1l-0.8,0.1l-0.7,0.1l-0.7,0.2l-0.8,0.2l-0.8,0.3l-0.7,0.3l-0.4,0.6l-0.4,0.6l-0.1,0.3
						l-0.1,0.2v0.3v0.3v0.2l0.1,0.2l0.1,0.2l0.2,0.1l0.2,0.1l0.3,0.1h0.4h0.4h0.9l0.9,0.1l0.8,0.1l0.8,0.1l0.8,0.2l0.8,0.1l0.7,0.2
						l0.7,0.2l0.7,0.3l0.6,0.2l0.7,0.3l0.6,0.3l0.6,0.4l0.6,0.4l0.5,0.4l0.6,0.4l0.5,0.5l0.5,0.5l0.4,0.5l0.5,0.5l0.4,0.5l0.3,0.6
						l0.4,0.5l0.3,0.6l0.3,0.6l0.2,0.6l0.2,0.7l0.2,0.6l0.1,0.7l0.1,0.7l0.1,0.7l0.1,0.7v1.1v1v0.9l-0.1,0.8l-0.2,0.7l-0.2,0.7
						l-0.2,0.6l-0.3,0.6l-0.5,1.2l-0.6,1.3l-0.7,1.4l-0.7,1.7l-0.5,1.5l-0.4,1.6l-0.2,1.6l-0.2,1.6v1.6l0.1,1.6l0.1,1.6l0.3,1.6
						l0.4,1.6l0.5,1.6l0.6,1.5l0.7,1.5l0.4,0.8l0.4,0.7l0.4,0.7l0.4,0.7l0.5,0.7l0.6,0.6l0.5,0.7l0.6,0.6l0.6,0.6l0.7,0.5l0.8,0.6
						l0.8,0.6l1.6,1.1l1.8,1l1.8,1.1l1.8,1.1l1.8,1.1l1.6,1.2l1.1,0.8l1,0.9l0.9,0.9l0.7,0.9l0.6,1l0.5,1l0.4,1l0.3,1l0.2,1.1
						l0.1,1.1l0.1,1.2v1.2l-0.1,1.2l-0.1,1.3l-0.1,1.3l0.2,1.3l-0.2,0.8l-0.1,0.8l-0.1,0.7l0.1,0.7l0.1,0.6l0.2,0.6l0.2,0.6l0.4,0.5
						l0.4,0.5l0.5,0.5l0.5,0.5l0.5,0.5l1.1,1l1.1,1l0.6,0.6l0.7,0.8l0.7,1l0.7,1.3l0.4,0.7l0.4,0.9l0.4,1l0.4,1.1l0.4,1.2l0.4,1.3
						l0.4,1.4l0.4,1.6l3,8.2l1,2.8l0.6,2.5l1,4.3l15.8-4l-0.8-5.1l-0.2-1.6l-0.2-1.6l-0.1-1.6l-0.1-1.6l-0.1-1.6v-1.5l0.1-1.5
						l0.1-1.5l0.1-1.5l0.1-1.5l0.2-1.4l0.2-1.4l0.2-1.4l0.3-1.4l0.3-1.4l0.4-1.4l0.7-2.7l0.9-2.6l0.9-2.5l1-2.5l1-2.4l1.1-2.3
						l1.2-2.2l1.3-2.1l0.5-0.6l0.5-0.6l0.6-0.5l0.6-0.5l1.2-0.9l1.4-0.8l1.5-0.8l1.5-0.8l1.7-0.9l1.7-1l1.7-1l1.6-1.1l1.4-1.1
						l1.3-1.1l1.2-1.1l1-1.2l1-1.2l0.8-1.2l0.8-1.2l0.7-1.2l0.6-1.2l0.5-1.2l0.4-1.2l0.3-1.2l0.2-1.2l0.2-1.2l0.1-1.2l0.1-1.2
						L543.3,312.4z M481.6,326l-0.6,0.6l-0.6,0.6l-0.6,0.5l-0.7,0.4l-0.7,0.4l-0.7,0.3l-0.7,0.3l-0.8,0.2l-0.8,0.2l-0.8,0.2
						l-0.8,0.1H473h-0.8l-0.8-0.1l-0.9-0.1l-0.8-0.2l-0.9-0.3l-0.9-0.3l-0.9-0.4l-0.9-0.5l-0.8-0.5l-1.1-0.8l-1-0.9l-1-0.9l-0.9-1
						l-0.9-1.1l-0.7-1.2l-0.7-1.2l-0.6-1.4l-0.5-1.3l-0.3-1.5l-0.1-0.7l-0.1-0.7V314v-0.8v-0.7v-0.8v-0.8l0.1-0.8l0.1-0.8l0.2-0.8
						l0.2-0.8l0.3-0.8l0.7-1.5l0.7-1.4l0.8-1.3l1-1.1l1-1l1.1-0.8l1.1-0.7l1.1-0.5l1.2-0.4l1.3-0.3l1.3-0.2h1.3l1.3,0.1l1.3,0.2
						l1.3,0.3l1.3,0.4l1.2,0.6l1.2,0.6l1.1,0.7l1.1,0.8l1,0.9l0.9,1l0.9,1.1l0.8,1.2l0.6,1.2l0.6,1.4l0.4,1.4l0.3,1.5l0.2,1.6v1.7
						l-0.2,1.7l-0.4,1.8l-0.2,0.9l-0.3,0.9l-0.3,0.9l-0.3,0.9l-0.4,0.8l-0.5,0.8l-0.4,0.8l-0.5,0.7l-0.5,0.7l-0.5,0.7H481.6z
						 M539.4,312.7v0.9l-0.1,0.8l-0.1,0.8l-0.1,0.8l-0.1,0.8l-0.2,0.9l-0.2,0.8l-0.3,0.8l-0.3,0.8l-0.4,0.8l-0.3,0.8l-0.4,0.7
						l-0.4,0.7l-0.5,0.7l-0.5,0.7l-0.5,0.7l-0.5,0.6l-0.6,0.6l-0.5,0.5l-0.6,0.5l-0.6,0.5l-0.6,0.5l-0.6,0.4l-0.7,0.4l-0.6,0.3
						l-0.6,0.3l-0.7,0.3l-0.7,0.3l-0.7,0.3l-0.7,0.2l-0.7,0.1l-0.6,0.1h-0.7l-0.7,0.1h-0.7h-0.7l-0.7-0.1L521,331l-0.7-0.2l-0.7-0.2
						l-0.6-0.3l-0.7-0.3l-0.6-0.3l-0.6-0.4l-0.6-0.4l-0.5-0.4l-0.5-0.5l-0.5-0.5l-0.5-0.6l-0.5-0.6l-0.4-0.6l-0.4-0.6l-0.3-0.6
						l-0.3-0.7l-0.3-0.7l-0.3-0.7l-0.2-0.8l-0.2-0.7l-0.2-0.8l-0.1-0.8l-0.1-0.8l-0.1-0.7V317v-0.8v-0.8l0.1-0.8l0.1-0.9l0.1-0.8
						l0.2-0.8l0.2-0.8l0.2-0.9l0.2-0.8l0.3-0.8l0.4-0.9l0.4-0.7l0.4-0.8l0.4-0.7l0.4-0.7l0.5-0.7l0.5-0.6l0.5-0.6l0.5-0.6l0.6-0.6
						l0.5-0.5l0.6-0.5l0.6-0.5l0.6-0.4l0.6-0.4l0.6-0.3l0.6-0.3l0.7-0.3l0.7-0.3l0.7-0.2l0.7-0.2l0.6-0.1l0.7-0.1l0.7-0.1h0.7h0.7
						h0.7l0.7,0.1l0.7,0.1l0.7,0.2l0.6,0.2l0.7,0.3l0.6,0.3l0.6,0.3l0.6,0.4l0.6,0.4l0.5,0.5l0.5,0.4l0.5,0.5l0.5,0.6l0.5,0.6
						l0.4,0.6l0.4,0.7l0.3,0.6l0.3,0.6l0.3,0.7l0.3,0.7l0.2,0.7l0.2,0.7l0.1,0.8l0.1,0.7l0.1,0.8l0.1,0.8v0.8L539.4,312.7z"/>
				</g>
				<g>
					<polygon class="st3" points="449,417.7 449.1,417.7 449.1,417.7 449.1,417.7 449.2,417.7 449.3,417.6 449.3,417.6 449.4,417.5 
						449.6,417.3 449.7,417 449.8,416.7 449.8,416.4 450.6,395.4 451,394.7 451.4,394 451.6,394.1 451.7,394.3 451.8,394.6 
						451.9,394.9 452,397.6 452.1,400.4 452.2,403 452.3,405.7 452.4,408.3 452.5,411 452.6,413.8 452.7,416.4 452.8,416.9 
						453,417.3 453.2,417.6 453.5,417.7 453.6,417.6 453.9,417.3 454.1,416.9 454.1,416.4 454.3,413.8 454.4,411 454.4,408.3 
						454.6,405.7 454.7,403 454.8,400.4 454.9,397.6 455,394.9 455.1,394.5 455.2,394.2 455.4,394 455.6,394 455.8,394 456,394.2 
						456.1,394.5 456.2,394.9 456.3,397.6 456.4,400.4 456.5,403 456.6,405.7 456.7,408.3 456.8,411 457,413.8 457,416.4 
						457.2,416.9 457.3,417.3 457.6,417.6 457.8,417.7 458,417.6 458.2,417.3 458.4,416.9 458.4,416.4 458.6,413.8 458.7,411 
						458.8,408.3 458.9,405.7 459,403 459.1,400.4 459.2,397.6 459.3,394.9 459.4,394.5 459.5,394.2 459.7,394 459.9,394 460.1,394 
						460.3,394.2 460.4,394.5 460.5,394.9 460.7,397.6 460.7,400.4 460.8,403 461,405.7 461,408.3 461.1,411 461.3,413.8 
						461.3,416.4 461.5,416.9 461.6,417.3 461.9,417.6 462.1,417.7 462.3,417.6 462.5,417.3 462.7,416.9 462.8,416.4 462.9,413.8 
						463,411 463.1,408.3 463.2,405.7 463.3,403 463.4,400.4 463.5,397.6 463.6,394.9 463.7,394.5 463.9,394.2 464,394 464.2,394 
						464.4,394 464.6,394.2 464.7,394.5 464.8,394.9 465,397.6 465,400.4 465.1,403 465.3,405.7 465.4,408.3 465.5,411 465.6,413.8 
						465.7,416.4 465.8,416.9 465.9,417.3 466.2,417.6 466.4,417.7 466.6,417.6 466.8,417.3 467,416.9 467.1,416.4 467.2,413.8 
						467.3,411 467.4,408.3 467.5,405.7 467.6,403 467.7,400.4 467.8,397.6 467.9,394.9 468,394.5 468.2,394.2 468.3,394 468.5,394 
						468.7,394 468.9,394.2 469.1,394.5 469.1,394.9 469.3,397.6 469.4,400.4 469.4,403 469.6,405.7 469.7,408.3 469.8,411 
						469.9,413.8 470,416.4 470.1,416.9 470.2,417.3 470.5,417.6 470.7,417.7 470.9,417.6 471.1,417.3 471.4,416.9 471.4,416.4 
						471.5,413.8 471.6,411 471.7,408.3 471.8,405.7 471.9,403 472,400.4 472.2,397.6 472.3,394.9 472.3,394.5 472.5,394.2 
						472.6,394 472.9,394 473.1,394 473.2,394.2 473.4,394.5 473.4,394.9 473.6,397.6 473.7,400.4 473.8,403 473.9,405.7 474,408.3 
						474.1,411 474.2,413.8 474.3,416.4 474.4,416.9 474.6,417.3 474.8,417.6 475,417.7 475.2,417.6 475.5,417.3 475.7,416.9 
						475.7,416.4 475.8,413.8 476,411 476,408.3 476.1,405.7 476.3,403 476.3,400.4 476.5,397.6 476.6,394.9 476.6,394.5 
						476.8,394.2 477,394 477.2,394 477.4,394 477.6,394.2 477.7,394.5 477.8,394.9 477.9,397.6 478,400.4 478.1,403 478.2,405.7 
						478.3,408.3 478.4,411 478.5,413.8 478.6,416.4 478.7,416.9 478.9,417.3 479.2,417.6 479.3,417.7 479.5,417.6 479.8,417.3 
						480,416.9 480,416.4 480.1,413.8 480.3,411 480.3,408.3 480.5,405.7 480.6,403 480.7,400.4 480.8,397.6 480.9,394.9 481,394.5 
						481.1,394.2 481.3,394 481.5,394 481.7,394 481.9,394.2 482,394.5 482.1,394.9 482.2,397.6 482.3,400.4 482.4,403 482.5,405.7 
						482.6,408.3 482.7,411 482.9,413.8 482.9,416.4 483,416.9 483.2,417.3 483.5,417.6 483.6,417.7 483.8,417.6 484.1,417.3 
						484.3,416.9 484.4,416.4 484.4,413.8 484.6,411 484.7,408.3 484.8,405.7 484.9,403 485,400.4 485.1,397.6 485.2,394.9 
						485.3,394.5 485.4,394.2 485.6,394 485.8,394 486,394 486.2,394.2 486.3,394.5 486.4,394.9 486.5,397.6 486.6,400.4 486.7,403 
						486.8,405.7 486.9,408.3 487,411 487.2,413.8 487.3,416.4 487.3,416.9 487.5,417.3 487.8,417.6 488,417.7 488.1,417.6 
						488.4,417.3 488.6,416.9 488.7,416.4 488.8,413.8 488.9,411 489,408.3 489.1,405.7 489.2,403 489.3,400.4 489.4,397.6 
						489.5,394.9 489.6,394.5 489.7,394.2 489.9,394 490.1,394 490.3,394 490.5,394.2 490.7,394.5 490.7,394.9 490.8,397.6 
						491,400.4 491,403 491.2,405.7 491.3,408.3 491.3,411 491.5,413.8 491.6,416.4 491.6,416.9 491.8,417.3 492.1,417.6 
						492.3,417.7 492.5,417.6 492.7,417.3 492.9,416.9 493,416.4 493.1,413.8 493.2,411 493.3,408.3 493.4,405.7 493.5,403 
						493.6,400.4 493.7,397.6 493.9,394.9 493.9,394.5 494.1,394.2 494.2,394 494.4,394 494.5,394 494.6,394 494.7,394 494.7,394 
						494.9,394 495.1,394.2 495.3,394.5 495.3,394.9 495.5,397.6 495.6,400.4 495.6,403 495.8,405.7 495.9,408.3 495.9,411 
						496.1,413.8 496.2,416.4 496.3,416.9 496.4,417.3 496.7,417.6 496.9,417.7 497.1,417.6 497.3,417.3 497.5,416.9 497.6,416.4 
						497.7,413.8 497.8,411 497.9,408.3 498,405.7 498.2,403 498.2,400.4 498.3,397.6 498.5,394.9 498.5,394.5 498.7,394.2 
						498.9,394 499.1,394 499.3,394 499.4,394.2 499.6,394.5 499.7,394.9 499.8,397.6 499.9,400.4 500,403 500.1,405.7 500.2,408.3 
						500.3,411 500.4,413.8 500.5,416.4 500.6,416.9 500.8,417.3 501,417.6 501.2,417.7 501.4,417.6 501.7,417.3 501.8,416.9 
						501.9,416.4 502,413.8 502.2,411 502.2,408.3 502.3,405.7 502.5,403 502.5,400.4 502.6,397.6 502.8,394.9 502.8,394.5 
						503,394.2 503.2,394 503.4,394 503.6,394 503.8,394.2 503.9,394.5 504,394.9 504.1,397.6 504.2,400.4 504.3,403 504.4,405.7 
						504.5,408.3 504.6,411 504.7,413.8 504.8,416.4 504.9,416.9 505.1,417.3 505.4,417.6 505.5,417.7 505.7,417.6 506,417.3 
						506.2,416.9 506.2,416.4 506.3,413.8 506.5,411 506.6,408.3 506.6,405.7 506.8,403 506.9,400.4 507,397.6 507.1,394.9 
						507.2,394.5 507.3,394.2 507.5,394 507.7,394 507.9,394 508.1,394.2 508.2,394.5 508.3,394.9 508.4,397.6 508.5,400.4 
						508.6,403 508.7,405.7 508.8,408.3 508.9,411 509,413.8 509.1,416.4 509.2,416.9 509.4,417.3 509.7,417.6 509.8,417.7 
						510,417.6 510.3,417.3 510.5,416.9 510.6,416.4 510.6,413.8 510.8,411 510.9,408.3 510.9,405.7 511.1,403 511.2,400.4 
						511.3,397.6 511.4,394.9 511.5,394.5 511.6,394.2 511.8,394 512,394 512.2,394 512.4,394.2 512.5,394.5 512.6,394.9 
						512.7,397.6 512.8,400.4 512.9,403 513,405.7 513.2,408.3 513.2,411 513.3,413.8 513.5,416.4 513.5,416.9 513.7,417.3 
						514,417.6 514.1,417.7 514.3,417.6 514.6,417.3 514.8,416.9 514.9,416.4 515,413.8 515.1,411 515.2,408.3 515.3,405.7 
						515.4,403 515.5,400.4 515.6,397.6 515.7,394.9 515.8,394.5 515.9,394.2 516.1,394 516.3,394 516.5,394 516.7,394.2 
						516.9,394.5 516.9,394.9 517,397.6 517.2,400.4 517.2,403 517.3,405.7 517.5,408.3 517.5,411 517.6,413.8 517.8,416.4 
						517.8,416.9 518,417.3 518.3,417.6 518.4,417.7 518.7,417.6 518.9,417.3 519.1,416.9 519.2,416.4 519.3,413.8 519.4,411 
						519.5,408.3 519.6,405.7 519.7,403 519.8,400.4 519.9,397.6 520,394.9 520.1,394.5 520.3,394.2 520.4,394 520.7,394 520.8,394 
						521,394.2 521.2,394.5 521.2,394.9 521.3,397.6 521.5,400.4 521.6,403 521.6,405.7 521.8,408.3 521.9,411 522,413.8 
						522.1,416.4 522.1,416.9 522.4,417.3 522.6,417.6 522.8,417.7 523,417.6 523.2,417.3 523.4,416.9 523.5,416.4 523.6,413.8 
						523.7,411 523.8,408.3 523.9,405.7 524,403 524.1,400.4 524.2,397.6 524.4,394.9 524.4,394.5 524.6,394.2 524.8,394 525,394 
						525.1,394 525.3,394.2 525.5,394.5 525.6,394.9 525.6,397.6 525.8,400.4 525.9,403 525.9,405.7 526.1,408.3 526.2,411 
						526.3,413.8 526.4,416.4 526.5,416.9 526.7,417.3 526.9,417.6 527.1,417.7 527.3,417.6 527.5,417.3 527.7,416.9 527.8,416.4 
						527.9,413.8 528,411 528.1,408.3 528.2,405.7 528.3,403 528.5,400.4 528.5,397.6 528.7,394.9 528.8,394.5 528.9,394.2 
						529.1,394 529.3,394 529.5,394 529.6,394.2 529.8,394.5 529.9,394.9 530,397.6 530.1,400.4 530.2,403 530.3,405.7 530.4,408.3 
						530.5,411 530.6,413.8 530.7,416.4 530.8,416.9 531,417.3 531.2,417.6 531.4,417.7 531.6,417.6 531.9,417.3 532,416.9 
						532.2,416.4 532.2,413.8 532.3,411 532.5,408.3 532.5,405.7 532.6,403 532.8,400.4 532.8,397.6 533,394.9 533.1,394.5 
						533.2,394.2 533.4,394 533.6,394 533.8,394 533.9,394.2 534.1,394.5 534.2,394.9 534.3,397.6 534.4,400.4 534.5,403 
						534.6,405.7 534.7,408.3 534.8,411 534.9,413.8 535,416.4 535.1,416.9 535.3,417.3 535.5,417.6 535.7,417.7 535.9,417.6 
						536.2,417.3 536.3,416.9 536.5,416.4 536.5,413.8 536.6,411 536.8,408.3 536.9,405.7 537,403 537.1,400.4 537.2,397.6 
						537.3,394.9 537.4,394.5 537.5,394.2 537.7,394 537.9,394 538.1,394 538.2,394.2 538.4,394.5 538.5,394.9 538.6,397.6 
						538.7,400.4 538.8,403 538.9,405.7 539,408.3 539.1,411 539.2,413.8 539.4,416.4 539.4,416.9 539.6,417.3 539.8,417.6 
						540,417.7 540.1,417.7 540.1,417.7 540.3,417.6 540.5,417.3 540.6,417.5 540.8,417.6 540.9,417.7 541.1,417.7 544.6,417 
						547.8,416.2 550.8,415.2 553.7,414.1 556.2,412.8 558.5,411.5 560.7,410.1 562.7,408.5 564.4,406.9 566,405.3 567.4,403.5 
						568.6,401.8 569.7,400 570.6,398.2 571.4,396.4 572.1,394.6 572.6,392.8 573,391.1 573.3,389.5 573.5,387.9 573.7,386.3 
						573.7,384.8 573.6,383.4 573.5,382.2 573.4,381 573.1,379.9 572.9,379.1 572.6,378.3 572.2,377.7 571.9,377.4 571.6,377.1 
						571.2,377.1 570,378.3 568.7,379.5 567.6,380.5 566.4,381.4 565.2,382 564.1,382.6 563,383.1 561.9,383.6 560.7,383.8 
						559.6,384 558.6,384.1 557.6,384.1 556.5,384 555.5,383.8 554.4,383.6 553.4,383.3 552.4,382.9 551.5,382.5 550.5,382 
						549.5,381.4 548.5,380.9 547.5,380.2 546.6,379.6 545.7,378.9 541.9,376 538.2,373.1 536,371.3 533.6,369.5 531.1,367.8 
						528.5,366 527.1,365.2 525.8,364.4 524.4,363.6 523,362.9 521.6,362.2 520.2,361.6 518.8,361.1 517.4,360.6 516,360.2 
						514.5,359.9 513.1,359.6 511.7,359.5 510.2,359.5 508.8,359.6 507.4,359.8 506,360.1 504.6,360.6 503.1,361.1 501.7,361.9 
						500.4,362.7 499,363.7 497.7,364.9 496.3,366.2 495,367.8 493.7,366.2 492.4,364.9 491,363.7 489.7,362.7 488.3,361.9 
						486.9,361.1 485.5,360.6 484.1,360.1 482.7,359.8 481.3,359.6 479.8,359.5 478.4,359.5 476.9,359.6 475.5,359.9 474.1,360.2 
						472.6,360.6 471.2,361.1 469.8,361.6 468.4,362.2 467,362.9 465.6,363.6 464.3,364.4 462.9,365.2 461.6,366 459,367.8 
						456.5,369.5 454.1,371.3 451.7,373.1 448.1,376 444.4,378.9 443.4,379.6 442.5,380.2 441.5,380.9 440.6,381.4 439.6,382 
						438.6,382.5 437.6,382.9 436.6,383.3 435.6,383.6 434.6,383.8 433.5,384 432.5,384.1 431.5,384.1 430.3,384 429.3,383.8 
						428.2,383.6 427.1,383.1 425.9,382.6 424.8,382 423.6,381.4 422.5,380.5 421.2,379.5 420,378.3 418.8,377.1 418.5,377.1 
						418.1,377.4 417.8,377.7 417.4,378.3 417.1,379.1 416.9,379.9 416.7,381 416.5,382.2 416.4,383.4 416.3,384.8 416.4,386.3 
						416.5,387.9 416.7,389.5 417,391.1 417.4,392.8 418,394.6 418.6,396.4 419.4,398.2 420.3,400 421.4,401.8 422.7,403.5 
						424.1,405.3 425.6,406.9 427.4,408.5 429.3,410.1 431.5,411.5 433.8,412.8 436.4,414.1 439.1,415.2 442.2,416.2 445.4,417 
						448.9,417.7 449,417.7 					"/>
					<circle class="st7" cx="495.4" cy="375.5" r="4"/>
					<g>
						<path class="st3" d="M497.3,373.3l-3.1,4.8c0.4,0.2,0.8,0.3,1.2,0.3c1.6,0,2.9-1.3,2.9-2.9
							C498.3,374.6,497.9,373.9,497.3,373.3z"/>
						<path class="st3" d="M493.5,377.6l3.2-4.8c-0.4-0.2-0.8-0.3-1.2-0.3c-1.6,0-2.9,1.3-2.9,2.9
							C492.5,376.3,492.9,377.1,493.5,377.6z"/>
					</g>
				</g>
				<g class="st8">
					<path class="st2" d="M544.5,266.9c6.8,2.1,13.6,4.1,20.3,6.4c1.3,0.4,3.1,2.2,3,3c-0.2,1.3-1.8,2.9-3.1,3.4
						c-5,1.7-10.1,3.5-15.3,4.2c-34.9,4.7-68.6-0.3-100.6-15.1c-8.2-3.8-15.6-9.5-23.1-14.7c-1.4-1-1.8-3.4-2.7-5.2
						c1.8-0.8,3.6-2.3,5.4-2.2c6.6,0.2,13.1,0.7,19.7,1.4c2.8,0.3,4-0.2,5.1-3c10.9-29.7,14.1-60.3,11.3-91.6
						c-0.3-2.9,0.5-4.1,3.3-4.1c5.5,0,11.1-0.3,16.6,0.1c29.4,2.2,57.6,9.2,84.2,22.2c2.4,1.2,4.5,2.8,7.1,4.4
						c-18.7,27.5-30.5,57-34,90C543.1,266.4,543.8,266.6,544.5,266.9z M548.2,171.2c-0.8-0.2-2.4,1.6-2.9,2.7
						c-6,16.6-12.4,33.1-17.5,50c-4.1,13.7-6.6,27.9-9.7,41.8c-0.4,1.6-0.5,3.3-1,6.1c4.5-0.4,8.5-0.5,12.5-1.1
						c0.8-0.1,1.9-1.7,2.1-2.8c4.3-32.5,14.4-63.1,30.4-91.7c0.2-0.3,0.1-0.7,0.3-1.5C557.6,173.5,552.9,172.1,548.2,171.2z"/>
					<path class="st5" d="M562.3,174.8c-4.7-1.2-9.4-2.6-14.2-3.6c-0.8-0.2-2.4,1.6-2.9,2.7c-6,16.6-12.4,33.1-17.5,50
						c-4.1,13.7-6.6,27.9-9.7,41.8c-0.4,1.6-0.5,3.3-1,6.1c4.5-0.4,8.5-0.5,12.5-1.1c0.8-0.1,1.9-1.7,2.1-2.8
						c4.3-32.5,14.4-63.1,30.4-91.7C562.2,175.9,562.2,175.5,562.3,174.8z"/>
				</g>
			</g>
		</g>
	</g>
	<circle class="st1" cx="496.1" cy="283.5" r="267.9"/>
	<g class="st8">
		<g class="st6">
			<path class="st3" d="M689.3,367.2c1.9,5.3,8.5,2.8,9.1-2.1c0.5-4.2-4-11.9-8.9-8.5c-6.6,4.7-4.7,16.4-3.5,23
				c1,6,2.3,12.3,0.4,18.3c-2.1,7-9.9,12.4-16.8,7.8c-0.3-0.2-0.6,0.3-0.3,0.5c8.8,6.8,17.7-3.1,18.8-11.6
				c0.9-6.9-1.2-13.7-1.8-20.5c-0.4-4-0.4-8,1-11.8c1.1-3,3.2-7.6,7.6-3.7c1,1.2,1.8,2.5,2.2,4c1.2,4.6-1.3,6-7.3,4.4
				C689.7,366.7,689.2,366.9,689.3,367.2L689.3,367.2z"/>
		</g>
		<g class="st6">
			<path class="st3" d="M686.2,373.3c6.2,0.1,10-7.6,5.1-12c-7-6.2-12.9,2.7-14.1,9.1c-1.8,9.9,1.9,19.9,1.1,29.8
				c-0.5,6.2-3.7,15.1-11.4,15.1c-4.4,0-8.3-3.6-9-7.9c-0.4-2.4,0.1-4.8,1.2-6.9c0.5-1.1,1.2-2.1,2.1-2.9c3.7-3,6.2-2.4,7.6,1.9
				c0,0.5,0.7,0.5,0.7,0c0.4-3.1-2.3-5.2-5.3-4.7c-4,0.7-6.6,5.2-7.3,8.8c-1.5,8.7,8,16.3,15.8,10.8c8.4-6,7-18.5,6-27.4
				c-0.7-6.4-1.7-13.1,0.3-19.3c1.5-4.9,6.5-10.2,11.6-5.6c4.5,4.1,0.8,10.2-4.4,10.8C686,372.9,686,373.3,686.2,373.3L686.2,373.3z
				"/>
		</g>
		<g class="st6">
			<path class="st3" d="M686.2,359.6c-4.7,3.5-5.2,9.7-5.1,15.2c0.1,6.8,1.3,13.5,1.7,20.3c0.4,7.5-0.3,15.8-4.8,22
				c-2.6,3.6-7.3,7.4-12.1,5.9c-2.9-0.9-5-3.7-6.1-6.3c-0.8-1.7-1-3.5-0.7-5.4c1.2-4,3.5-3.7,6.9,1c-0.2,0.4,0.5,0.7,0.7,0.3
				c3.5-5.1-5.7-8.5-8.3-2.6c-3.3,7.4,5.3,16.3,12.7,13.9c9.7-3.2,12.8-15.3,12.9-24.4c0.1-6.3-1-12.6-1.6-18.9
				c-0.6-6.9-1.2-15.3,4.3-20.4C687.1,359.8,686.6,359.4,686.2,359.6L686.2,359.6z"/>
		</g>
	</g>
	<g class="st8">
		<g class="st6">
			<path class="st3" d="M302.8,367.2c-1.9,5.3-8.5,2.8-9.1-2.1c-0.5-4.2,4-11.9,8.9-8.5c6.6,4.7,4.7,16.4,3.5,23
				c-1,6-2.3,12.3-0.4,18.3c2.1,7,9.9,12.4,16.8,7.8c0.3-0.2,0.6,0.3,0.3,0.5c-8.8,6.8-17.7-3.1-18.8-11.6
				c-0.9-6.9,1.2-13.7,1.8-20.5c0.4-4,0.4-8-1-11.8c-1.1-3-3.2-7.6-7.6-3.7c-1,1.2-1.8,2.5-2.2,4c-1.2,4.6,1.3,6,7.3,4.4
				C302.4,366.7,302.9,366.9,302.8,367.2L302.8,367.2z"/>
		</g>
		<g class="st6">
			<path class="st3" d="M305.9,373.3c-6.2,0.1-10-7.6-5.1-12c7-6.2,12.9,2.7,14.1,9.1c1.8,9.9-1.9,19.9-1.1,29.8
				c0.5,6.2,3.7,15.1,11.4,15.1c4.4,0,8.3-3.6,9-7.9c0.4-2.4-0.1-4.8-1.2-6.9c-0.5-1.1-1.2-2.1-2.1-2.9c-3.7-3-6.2-2.4-7.6,1.9
				c0,0.5-0.7,0.5-0.7,0c-0.4-3.1,2.3-5.2,5.3-4.7c4,0.7,6.6,5.2,7.3,8.8c1.5,8.7-8,16.3-15.8,10.8c-8.4-6-7-18.5-6-27.4
				c0.7-6.4,1.7-13.1-0.3-19.3c-1.5-4.9-6.5-10.2-11.6-5.6c-4.5,4.1-0.8,10.2,4.4,10.8C306.1,372.9,306.1,373.3,305.9,373.3
				L305.9,373.3z"/>
		</g>
		<g class="st6">
			<path class="st3" d="M305.9,359.6c4.7,3.5,5.2,9.7,5.1,15.2c-0.1,6.8-1.3,13.5-1.7,20.3c-0.4,7.5,0.3,15.8,4.8,22
				c2.6,3.6,7.3,7.4,12.1,5.9c2.9-0.9,5-3.7,6.1-6.3c0.8-1.7,1-3.5,0.7-5.4c-1.2-4-3.5-3.7-6.9,1c0.2,0.4-0.5,0.7-0.7,0.3
				c-3.5-5.1,5.7-8.5,8.3-2.6c3.3,7.4-5.3,16.3-12.7,13.9c-9.7-3.2-12.8-15.3-12.9-24.4c-0.1-6.3,1-12.6,1.6-18.9
				c0.6-6.9,1.2-15.3-4.3-20.4C305.1,359.8,305.5,359.4,305.9,359.6L305.9,359.6z"/>
		</g>
	</g>
</g>
</svg>
