<?xml version="1.0" encoding="utf-8"?>
<!-- Generator: Adobe Illustrator 16.0.0, SVG Export Plug-In . SVG Version: 6.00 Build 0)  -->
<!DOCTYPE svg PUBLIC "-//W3C//DTD SVG 1.1//EN" "http://www.w3.org/Graphics/SVG/1.1/DTD/svg11.dtd">
<svg version="1.1" id="图层_1" xmlns="http://www.w3.org/2000/svg" xmlns:xlink="http://www.w3.org/1999/xlink" x="0px" y="0px"
	 width="566.9px" height="566.9px" viewBox="0 0 566.9 566.9" style="enable-background:new 0 0 566.9 566.9;" xml:space="preserve"
	>
<style type="text/css">
<![CDATA[
	.st0{filter:url(#Adobe_OpacityMaskFilter);}
	.st1{opacity:0.61;fill-rule:evenodd;clip-rule:evenodd;fill:none;stroke:#C2B59C;stroke-width:3.2416;stroke-miterlimit:10;}
	.st2{mask:url(#SVGID_1_);}
	.st3{fill:#C2B59C;}
	.st4{fill:#2A2B2B;}
	.st5{fill:#333434;}
	.st6{fill-rule:evenodd;clip-rule:evenodd;fill:#C2B59C;}
	.st7{fill-rule:evenodd;clip-rule:evenodd;fill:#333434;}
]]>
</style>
<g>
	<circle class="st7" cx="283.5" cy="283.5" r="282"/>
	<defs>
		<filter id="Adobe_OpacityMaskFilter" filterUnits="userSpaceOnUse" x="137.3" y="117" width="289.6" height="414.1">
			<feFlood  style="flood-color:white;flood-opacity:1" result="back"/>
			<feBlend  in="SourceGraphic" in2="back" mode="normal"/>
		</filter>
	</defs>
	<mask maskUnits="userSpaceOnUse" x="137.3" y="117" width="289.6" height="414.1" id="SVGID_1_">
		<g class="st0">
		</g>
	</mask>
	<g class="st2">
		<g>
			<path class="st4" d="M268.1,432.1c1.9,5.8,1.1,11.7,0.4,17.6c-0.1,0.5-1,1.4-1.4,1.3c-2.1-0.2-4.2-0.5-6.1-1.1
				c-0.6-0.2-1.2-1.5-1.1-2.2c0.4-4.2,0.9-8.3,1.6-12.5c0.2-1.3,1.4-2.4,2.2-3.6C265.1,431.8,266.6,431.9,268.1,432.1z"/>
			<path class="st4" d="M343.2,434.1c-0.5,2.5-1,5.1-1.6,7.6c-2.9-3.2-2.3-6.6,0.5-7.9C342.5,433.9,342.9,434,343.2,434.1z"/>
			<g>
				<path class="st4" d="M177,390.1c-2.3-2.5-5-5.1-7.4-7.9c-1.9-2.1-2.4-4.6-1.9-7.5c1.5-8,1-9-7-11.2c-4.2-1.1-6.7-3.4-8.1-7.3
					c-0.4-1.1-0.8-2.2-1.3-3.2c-3.6-6.5-4.5-12.9-0.3-19.5c0.5-0.7,0.5-1.8,0.5-2.8c1-12,0.1-23.8-4.6-35.1c-1.4-3.3-2.3-6.8-3.7-10
					c-4.8-10.6-5.6-21.8-5.8-33.2C137,235,138.5,218,146,202c4-8.5,7.5-17.3,12.4-25.3c8.5-13.7,20.5-24.3,33.9-33.2
					c19.7-13.1,40.9-21.9,64.4-24.9c49.8-6.2,94.8,4.6,132.9,38.6c7.4,6.6,13.9,14.4,18.6,23.3c7.1,13.5,14.2,27.3,16.6,42.4
					c1.8,11,1.3,22.4,1.9,33.6c0.6,12.4-3.6,23.6-7.8,34.8c-2.3,6.1-4.7,12.3-5.6,18.7c-1,7.3-0.6,14.8-0.4,22.1
					c0.1,2.3,1.7,4.6,2.7,6.9c0.9,2.2,1.1,4.4,0.1,6.7c-1.8,4.2-3.6,8.5-5.4,12.7c-1,2.3-2.7,3.6-5.1,4.2c-2.2,0.6-4.4,1.4-6.5,2.3
					c-2,0.8-3,2.3-2.8,4.5c0.1,0.9,0,1.8,0.2,2.6c1.7,5.4-0.4,9.6-4.2,13.1c-2.1,1.9-3.4,3.7-3.8,6.9c-0.6,5.9-2.4,11.7-3.3,17.5
					c-1.8,11.2-2.7,22.5,0.6,33.7c0.7,2.3,0.6,5-0.1,7.3c-2.8,9.6-7.3,18.3-13.6,26.1c-1.9,2.4-4.2,3.7-7.1,4.6
					c-2.4,0.7-4.6,2.2-6.5,3.8c-2,1.6-3.7,3.7-5.1,5.9c-7.3,11.3-17.2,19.9-28.3,27.1c-6.2,4-12.5,8-19.3,10.8
					c-4.4,1.8-9.6,2.1-14.4,2.1c-9.5,0-19-0.6-28.5-1c-1,0-2.1-0.4-3-0.9c-15-7.4-29-16.3-40.4-28.7c-3.4-3.7-6.1-8.1-9.2-12.2
					c-2.9-3.7-6-6.9-11.1-7.5c-1.4-0.2-2.8-1.3-3.8-2.3c-7.7-8.6-12.9-18.6-15.7-29.8c-0.4-1.7-0.2-3.7,0.3-5.4
					c2.7-8,2.7-16.1,1.8-24.3c-1-8.8-2.9-17.6-4.3-26.4C176.9,392,177,391,177,390.1z M319.8,426.3c1.5,2.5,3,5,3.9,6.6
					c0.9-2.7,2.2-6.4,3.8-10.9c-1.6,2.3-3,4.1-4.3,5.9c-0.2-0.2-0.4-0.5-0.6-0.7C321.7,426.9,320.7,426.7,319.8,426.3
					c-0.1-0.1-0.1-0.4-0.2-0.4c-2.7-1.9-3.6,0.7-5.1,2c-0.9,0.8-2,1.5-2.8,2.1c1,3,2.1,6.5,3.3,10c0.2-1.2,0-2.3,0.1-3.5
					c0.2-2.6,0.4-5.3,1-7.9C316.5,426.8,317.8,425.8,319.8,426.3z M250.6,439.6c1.6-3.7,0.6-8.3,4-11.4c-0.9,0.6-1.8,1.2-2.8,1.9
					c-0.6-1-1.2-2-1.8-2.9c-0.6-0.7-1.1-1.4-1.7-2.1c-2.2,0.4-4.4,0.8-6.9,1.2c-0.2-0.3-0.8-1-1.4-1.8c1.5,4.4,1.6,8.6,0.8,12.9
					c-0.2,1.2-1.1,2.2-2.1,4c-0.2,2.8-0.4,6.6-0.8,10.4c-0.1,0.7-1,1.4-1.6,2.1c-0.6-0.5-1.6-1-1.8-1.7c-0.9-3.1-1.6-6.3-2.4-9.4
					c0.2,0,0.3,0,0.5-0.1c-0.5,1.8-1.1,3.6-1.6,5.4c-0.4,0-0.9,0-1.3,0c-0.9-2.4-1.8-4.9-2.5-6.8c-0.8-0.3-1.8-0.3-2.3-0.7
					c-1.7-1.7-1.6-5.5-0.1-7.5c-2.6-2.9-2.5-8.8,0.1-12c-3.2-1.8-3.6-4.7-3.4-7.9c0.3-4,0.7-8,0.8-12c0-2.6-1.5-4.6-4-5.4
					c-2.7-0.9-5.5-1.7-8.2-2.6c-4.1-1.3-7.7-0.3-10.8,1.7c0.5,0.6,1.2,1.1,1.5,1.8c2.3,5.1,3.9,10.3,4.8,16
					c1.5,9.8,7.8,17.5,14.1,25c3.1,3.7,6,7.6,9,11.4c0.5,0.6,1.2,1.6,1.8,1.6c1.9,0,2.1,1.2,2.5,2.5c1.3,4.4,1.6,4.5,5.5,2
					c0.1-0.1,0.4-0.1,0.5-0.1c3.5,6.3,3.5,6.3,8,3.2c1.2,2.1,1.8,5.1,3.7,6.2c1.6,1,4.4,0,7.1-0.1c1,1.3,2.3,3.4,4.1,4.9
					c2.3,1.9,4.4,0,5.5-1c2.1,1.3,3.7,2.8,5.5,3.1c0.8,0.1,1.9-2.4,2.9-3.8c-0.2-0.1-0.4-0.3-0.6-0.4c-2.2,2.3-3.8,2.1-5.6-0.9
					c-1.3-2.2-2.2-4.7-3.4-7.3c0,2.2,0.2,4.2,0,6c-0.3,2.6-1.9,3.2-3.7,1.4c-1.4-1.4-2.5-3.2-3.3-5c-1-2.3-1.6-4.8-2.6-7.9
					c0,2.4,0.3,4-0.1,5.6c-0.3,1.3-1.2,3.5-2,3.6c-1.3,0.2-3.2-0.8-4-1.8c-2.7-3.5-3.4-7.7-3.1-12c0.1-1.5,0.8-2.3,2.5-2
					c0.7,0.2,1.5,0.3,1.4,0.3c-0.3-1.4-0.8-2.8-0.9-4.2c-0.1-1.2,0.1-2.5,0.2-3.7L250.6,439.6z M332.6,424.6
					c-0.6-0.5-1.2-1.1-2.4-2.1c3.1,6.4,1.8,11.9-0.2,17.7c1-0.4,1.9-0.8,3.2-1.4c1.4,5.2,1.1,10-1.3,14.7c-0.3,0.5-1.2,1.1-1.5,1
					c-0.6-0.2-1.3-0.9-1.4-1.5c-0.4-1.8-0.6-3.6-0.8-5.4c-0.6,2.8-1.4,5.4-2.7,7.8c-0.6,1.1-2.3,1.7-3.5,2.5c-0.7-1.3-1.9-2.6-2.1-4
					c-0.3-3-0.1-6-0.1-8.9c-1.2,0-2.5,0-3.9,0c-0.4,0.6-0.9,1.6-1.1,1.9c1.2,0.5,3.4,0.9,3.6,1.7c0.9,4.8,0,9.4-3.2,13.3
					c-0.7,0.9-2.6,1.6-3.4,1.3c-1-0.4-2-2.1-2.1-3.3c-0.3-3.6-0.1-7.2-0.1-10.7c-0.5-0.3-1.8-0.6-2.4-1.4c-0.7-0.9-0.7-2.2-1.2-4.1
					c0.1,1.7,0.1,2.7,0.3,3.6c0.3,1.9-0.5,3-2.3,3.3c-1.4,0.3-2.8,0.5-4.3,0.6c-1.5,0.2-2.4-0.4-2.4-2c-0.2-5.4-0.5-10.8-0.7-15.9
					c-0.3,0.2-1.1,0.7-2.1,1.3c0.5,2.8,1.3,5.8,1.6,8.8c0.9,8,0.8,8-7.2,8.7c-4.3,0.4-4.7,0-5-4.3c0-0.5-0.1-1-0.2-1.4
					c-0.4,1.3-0.3,2.7-0.7,4c-0.2,0.7-1,1.8-1.6,1.8c-3.1,0.1-6.1,0.1-9.2-0.1c-1.9-0.1-2.9-1.1-2.7-3.2c0.5-5.1,0.8-10.3,1.1-15
					c-0.8-0.5-1.7-1.2-2.6-1.8c-1.5-0.1-3-0.3-4.5-0.4c-0.9,0.5-1.8,1-2.8,1.5c-0.4-0.7-0.8-1.4-0.9-1.5c-0.2,4-0.4,8.4-0.6,12.8
					c-0.1,2.6-0.6,4.7-3.7,3.8c0.4,1.3,0.8,2.5,1.2,3.7c2-1.4,5.9-1.3,8.1,0.2c0.5,0.3,1.3,0.4,1.9,0.3c3.9-1.2,7.2,0.7,7.8,4.8
					c0.5,3.9,0.5,7.8,2.5,11.4c1.9,3.4,2.9,3.7,5.3,0.8c0.3-0.3,0.6-0.7,0.9-1c2.9,4.1,3.8,4,6.8-0.5c0.7,1.1,1.9,3.6,2.2,3.5
					c2.2-0.7,4.3-2,6.4-3.1c1.5,2.2,3.1,2.7,5.1,0.7c1.6-1.6,2.9-3.5,4.3-5.3c5.1,3.1,5.1,3.1,11.1-5.2c1.5,0.4,2.5,3.3,4.5,1
					c1.2-1.4,2.3-3,3.4-4.5c1,0.8,1.9,1.4,3.2,2.5c1.9-3.7,4.2-7,7.7-9.1c0.1-0.1,0.2-0.3,0.3-0.5c1.4-2,2.8-4.1,4.2-6.1
					c4.5-6.3,9.3-12.3,13.3-18.8c2.2-3.7,4-8.2,4.2-12.4c0.2-5.8,3.3-10,4.8-14.8c2.3,0.3,4.1,0.6,6,0.9c-2.3-1-4.8-1.2-6.9-2.3
					c-3.3-1.7-6.6-2-10-1c-2.6,0.8-5.3,1.3-7.6,2.6c-1.7,0.9-3.6,2.8-3.8,4.5c-0.5,3.4-0.3,7.1,0.2,10.5c0.5,3.7,0.5,7-2,10
					c3.5,3.3,2.1,7.2,1.4,10.9c-0.1,0.7-1.5,1.4-2.4,1.7c-0.5,0.1-1.2-0.9-1.9-1.4c-0.3,1.3-0.7,2.5-1,3.7c3.4,1.3,3.3,9-0.7,12.6
					c-1.4-3.9-2.2-7.7-1.6-10.7c-0.9-1.6-1.7-2.5-1.8-3.4C332.5,431.1,332.6,427.8,332.6,424.6c0.7-1.2,1.5-2.3,2.7-3.9
					c1.1,1.7,2,3.1,2.8,4.4c0.5-1.2,1.1-2.5,1.7-3.8C335.2,419.3,333.5,420,332.6,424.6z M348.6,345.6c9.5,0.5,17.5,0,25-3.6
					c4-1.9,7.2-4.8,8.7-8.9c3-8.4,4.6-17.2,4.6-26.2c-0.1-9-3.7-15.8-11.5-20.1c-6.9-3.8-13.9-7.3-21-10.6c-3-1.4-6.4-2.8-9.6-2.8
					c-8.5-0.1-17.1,0.5-25.6,1c-2.2,0.1-4.9,0.5-6.5,1.9c-4.4,3.8-7.8,8.5-9.5,14.1c-2.5,7.9-2.3,16-0.4,23.9
					c2.5,10.6,8.2,19.4,17.8,24.7C329.5,344,339.6,345.7,348.6,345.6z M215.5,345.4c9.7,0.4,19.3-1,28.1-5.9
					c11.5-6.5,20.6-14.9,22.4-29.1c1.5-11.6,0.6-22.4-7.8-31.6c-2.4-2.7-5.1-4.2-8.6-4.4c-7.3-0.4-14.6-1-21.9-1.4
					c-1.9-0.1-3.9,0.1-5.7,0.5c-11.3,3-21.9,7.8-31.4,14.6c-4.1,3-7.6,6.3-8.6,11.8c-2.3,13.6,0.6,26.1,7.5,37.8
					c0.9,1.5,2.7,2.7,4.3,3.6C200.6,344.9,207.8,345.9,215.5,345.4z M286,345.5c0.6,8.6,1.1,18.1,1.8,27.5
					c0.5,6.3,1.2,12.6,2.3,18.8c0.7,3.9,5,6.3,8.6,4.7c5.7-2.5,10.6-6.3,11.6-12.8c0.6-3.7,0.7-7.8-0.2-11.4
					c-3.2-12.5-6.8-24.9-10.8-37.2c-1-3.2-3.5-6.1-6-8.5c-3.1-2.9-6.1-1.6-6.4,2.7C286.5,334.4,286.3,339.4,286,345.5z M284.8,337.8
					c-0.1,0-0.3,0-0.4,0c0-3.6,0.2-7.1-0.1-10.6c-0.2-2.5-1.8-3.1-3.4-1.1c-2.3,2.8-4.4,5.8-6,9.1c-3.7,7.4-7,14.9-10.4,22.4
					c-1.3,3-2.7,6-3.3,9.1c-1,4.8-1.2,9.7-1.9,14.6c-0.9,6.4,2.2,10.8,7.3,13.9c2.4,1.4,5.3,2.3,8.1,2.8c3.1,0.5,6.8-3.3,7-7.4
					c0.4-6.6,0.5-13.3,0.9-19.9C283.3,359.6,284,348.7,284.8,337.8z M234.4,423.3c-2,2-0.6,5-1.1,7.5c-0.3,1.6,1.1,4.1-1.4,4.6
					c-2.8,0.6-3.3-1.9-3.8-4c0-0.1-0.2-0.1-0.9-0.5c0,2.6,0,4.9,0,7.1c1.1-0.8,2.1-2.1,2.5-1.9c1.3,0.6,2.5,1.6,3.9,2.7
					c-0.1,0,0.6-0.4,0.8-0.5C234.4,433,234.4,428.1,234.4,423.3z M293.6,433c0.2-0.2,0.4-0.4,0.5-0.7c-1.6-1-3.3-3-4.6-2.7
					c-2.3,0.4-4.3,2.3-6.7,3.6c-0.3-0.2-0.9-0.6-1.5-1c0.5,1.8,1,3.6,1.3,5.3c0.3,1.8,0.3,3.7,0.5,5.5c0.4-0.9,0.4-1.7,0.5-2.5
					c0.1-1.7,0.2-3.5,0.5-5.2C285,430.7,288.7,429.8,293.6,433z M328.7,440.5c-3.3,0.9-4.7-0.1-4.5-2.2c-0.3,1.3-0.8,3.6-1.3,5.9
					c0.5-0.2,1.3-0.6,2.2-0.9c0.9-0.3,1.8-0.3,3-0.5C328.1,442.4,328.3,441.7,328.7,440.5z M230.1,419.8c-1.5,0.3-2.7,0.6-4.1,0.9
					c0.7,1.5,1.2,2.7,1.7,3.9C228.4,423.1,229.1,421.7,230.1,419.8z M305.7,430.6c-2.1,3.2-0.8,6.6,0,9.7
					C305.7,437.3,305.7,433.9,305.7,430.6z"/>
				<path class="st4" d="M250.6,439.5c-0.1,0.2-0.3,0.5-0.4,0.7c-0.4,1.7,0.4,4.2-2.7,4c-3.6-0.2-5.8-2-5.6-5
					c0.2-3.3,0.5-6.6,1.2-9.9c0.5-2.5,2.3-4.1,5.1-4.2c0.6,0.7,1.1,1.4,1.7,2.1c0.2,4.1,0.4,8.3,0.6,12.4L250.6,439.5z"/>
				<path class="st4" d="M300.2,458.7c-1.2,2.9-2,5.5-3.3,7.9c-0.6,1.1-2.1,1.7-3.2,2.5c-0.6-1.2-1.4-2.4-1.6-3.7
					c-0.3-2.2-0.1-4.4-0.1-6.6c-1.3,3.4-2.7,6.9-4.2,10.8c-4.4-2.9-2.7-7.2-4-10.7c-0.4,2.3-0.6,4.6-1.3,6.6
					c-0.5,1.3-1.7,2.3-2.6,3.5c-0.8-1-1.9-1.9-2.2-3c-1-3.4-1.8-6.8-2.5-10.3c-0.4-2,0.7-2.9,2.6-2.6c1.9,0.3,3.8,0.8,5.7,1.2
					c0.4,0.1,0.8-0.2,1.2-0.4c2.1-1.1,6.7-0.5,7.7,1c2.1-2.6,5.3-3.1,8-1.2c1.5-2.8,4.2-2.6,6.8-2.3c0.6,0.1,1.6,1.6,1.5,2.2
					c-1.1,4.1-2.3,8.2-3.9,12.2c-0.4,1-2,1.5-3.1,2.2c-0.6-1.2-1.5-2.4-1.7-3.7C299.8,462.5,300.1,460.7,300.2,458.7z"/>
				<path class="st4" d="M240.2,442.7c1.9,0.7,3.7,1.3,5.4,2c0.5,0.2,1.2,0.7,1.2,1.1c0,3.6,0.1,7.2-0.4,10.8
					c-0.2,1.5-1.9,2-3.4,0.8C240.1,454.9,237.3,447.4,240.2,442.7z"/>
			</g>
		</g>
	</g>
	<g>
		
			<image style="overflow:visible;opacity:0.75;" width="1279" height="410" xlink:href="5C39F91F.png"  transform="matrix(0.24 0 0 0.24 128.7344 420.5107)">
		</image>
		<g>
			<g>
				<path class="st3" d="M143.7,447.8c-2-0.1-3.8-0.9-5.6-2.3l-5.7-4.9l2.5-2.5l3.9,3.3c1.5,1.3,2.9,1.1,4.3-0.5
					c0.8-0.9,1.2-1.9,1.2-3l0.2-6.1c0.1-2,0.7-3.7,1.9-5.1c1.5-1.8,3.4-2.6,5.5-2.4c1.9,0.1,3.7,0.9,5.3,2.3l4,3.4l-2.5,2.5
					l-2.9-2.4c-1.2-1-2.1-1.1-2.8-0.3c-0.4,0.4-0.6,1-0.6,1.7l-0.6,7.9c-0.2,2.4-1,4.4-2.3,6C147.9,447,146,447.9,143.7,447.8z"/>
				<path class="st3" d="M161.5,458.8l-2.3,2.7l-0.8-0.5c-1.9-1.3-3-2.8-3.4-4.5c-0.4-1.7,0.1-3.3,1.4-4.9l10.7-12.9l-1.5-1l2.3-2.7
					l6.6,4.7l-12.9,15.6C160.5,456.6,160.5,457.8,161.5,458.8z M180,433c-0.6,0.8-1.3,1.3-2.3,1.5c-0.9,0.2-1.8,0.1-2.5-0.4
					c-0.7-0.5-1.1-1.2-1.3-2.2c-0.1-0.9,0.1-1.8,0.7-2.7c0.6-0.8,1.3-1.3,2.2-1.5c0.9-0.2,1.7-0.1,2.5,0.4s1.1,1.2,1.3,2.2
					C180.8,431.3,180.6,432.2,180,433z"/>
				<path class="st3" d="M187.1,473.8l-2,3l-2.4-1.3c-1.4-0.8-2.3-1.7-2.7-2.9c-0.5-1.4-0.2-2.8,0.7-4.3l8.1-12.3
					c0.4-0.7,0.7-1.4,0.6-2.1c-0.1-0.9-0.4-1.5-1.1-1.9l-2.2-1.2l-12.9,19.5l-5.6-3.1l12.9-19.5l-1.6-0.9l2-3l9.4,5.2
					c2.3,1.3,3.8,2.8,4.5,4.5c0.8,2,0.5,4-0.9,6.2l-7.3,11.2c-0.5,0.9-0.8,1.5-0.7,1.9C186.1,473.1,186.4,473.5,187.1,473.8z"/>
				<path class="st3" d="M219.2,462l-1.6,3.2l-6.3-2.5c-0.6-0.2-1.2-0.1-1.8,0.3c-0.6,0.5-1.1,1-1.4,1.7l-6.1,12.5
					c-0.3,0.7-0.3,1.4,0,2.1s0.8,1.2,1.5,1.5c0.9,0.4,1.9,0.3,2.9-0.1c1-0.4,1.7-1.1,2.2-2.1l3,1.2c-0.9,1.8-2.3,3.2-4.2,4
					c-1.9,0.8-3.7,0.9-5.4,0.2l-0.9-0.4c-1.9-0.8-3.3-1.9-4.3-3.5c-1.1-1.8-1.2-3.7-0.4-5.8c0.1-0.2,0.1-0.4,0.2-0.5l5.3-10.6
					c1-2.1,2.7-3.4,4.9-4.1c2.1-0.5,4.1-0.4,6.1,0.4L219.2,462z"/>
				<path class="st3" d="M238.6,475.3l-3.1-0.8c0.4-1,0.4-2,0-2.8c-0.4-0.9-1-1.4-1.8-1.8c-1.1-0.4-2.1-0.2-3,0.5
					c-0.9,0.8-1.5,1.8-1.9,3c-0.6,2.2-0.2,3.5,1.3,3.8l5.7,1.6l-1.2,3.3l-5.6-1.5c-0.8-0.2-1.6,0-2.3,0.8c-0.7,0.7-1.3,1.7-1.6,2.8
					c-0.3,1.1-0.3,2,0,2.9s1,1.4,2,1.6c0.8,0.2,1.7,0,2.6-0.5s1.5-1.3,1.9-2.4l3.1,0.8c-0.8,2.3-2.2,3.8-4.1,4.7
					c-1.8,0.8-3.7,0.9-5.8,0.3c-2-0.5-3.6-1.7-4.7-3.5c-1.2-1.8-1.5-3.8-0.8-5.8c0.8-2.3,2.4-3.9,4.7-4.8c-1.2-2.2-1.4-4.3-0.7-6.3
					c0.8-2.2,2.3-3.7,4.5-4.5c2-0.8,4-0.9,6.1-0.4c2.1,0.6,3.7,1.6,4.6,3.2C239.3,471,239.4,473,238.6,475.3z"/>
				<path class="st3" d="M268.6,495.4l-0.6,3.5l-11.5-1.1l0.6-3.5l2.6,0.2l3.4-19.5l-2.7-0.3l0.6-3.5l9,0.8l-4,23L268.6,495.4z"/>
				<path class="st3" d="M292.4,472.4l-0.2,3.5L285,476l-0.5,9c2.2,0,4.1,0.5,5.7,1.8c1.8,1.4,2.6,3.3,2.4,5.7L292,501
					c-0.1,2.1-1,3.9-2.8,5.4c-1.7,1.5-3.7,2.3-6,2.3l-1,0c-1.8,0-3.4-0.7-4.6-2.1c-1.2-1.4-1.8-3.2-1.7-5.3l3.2-0.1
					c0,1.1,0.3,2,0.9,2.8c0.6,0.8,1.5,1.2,2.4,1.1c2,0,3.1-1.4,3.3-4.1l0.6-9.5c0.1-2.1-0.5-3.1-1.8-3.1l-6.6,0.1l1-16.1
					L292.4,472.4z"/>
				<path class="st3" d="M332.4,466.7l3.6,30.7c0.2,2.1-0.4,4-1.8,5.8c-1.4,1.8-3.3,2.9-5.6,3.4l-6.3,1.2l-0.4-3.5l5.9-1.2
					c1.6-0.3,2.2-1.5,2-3.6l-0.6-4.9l-2.1,0.4c-2.4,0.5-4.5,0.2-6.3-0.8c-2-1.1-3.1-3-3.4-5.6l-1.8-15.1l-1.7,0.3l-0.4-3.5l7.9-1.6
					l2.3,19.9c0.3,2.2,1.2,3.1,2.9,2.8l2.1-0.4l-2.7-23.2L332.4,466.7z"/>
				<path class="st3" d="M355.2,467.2l-3,1c-0.2-1.1-0.8-1.8-1.6-2.3c-0.8-0.5-1.6-0.7-2.5-0.5c-1.1,0.3-1.9,1-2.2,2.1
					c-0.3,1.1-0.3,2.3,0.1,3.6c0.7,2.1,1.8,3,3.2,2.5l5.6-1.8l0.8,3.4l-5.6,1.8c-0.8,0.3-1.3,0.9-1.5,1.9c-0.2,1-0.1,2.1,0.2,3.2
					c0.3,1,0.9,1.8,1.6,2.4c0.7,0.5,1.6,0.6,2.5,0.2c0.8-0.3,1.4-1,1.9-1.9c0.5-0.9,0.5-1.9,0.3-3.1l3-1c0.6,2.3,0.3,4.4-0.9,6.2
					c-1.1,1.6-2.6,2.8-4.7,3.5c-2,0.6-3.9,0.5-5.8-0.3c-2-0.9-3.3-2.3-3.8-4.4c-0.6-2.4-0.2-4.6,1.3-6.6c-2.2-1.2-3.6-2.8-4.1-4.9
					c-0.5-2.2-0.1-4.3,1.3-6.2c1.2-1.8,2.9-3,4.9-3.7c2.1-0.7,4-0.6,5.6,0.1C353.5,463.3,354.7,464.8,355.2,467.2z"/>
				<path class="st3" d="M386.6,470.4l1.3,3.3l-2,1c-2,0.9-3.8,1-5.3,0.1c-0.6,1.9-1.8,3.2-3.5,4l-0.9,0.4c-1.9,0.9-3.9,1.1-5.8,0.6
					c-2.1-0.6-3.6-1.9-4.4-4.1l-4.2-11.1c-0.8-2.2-0.7-4.3,0.5-6.4c1-1.9,2.5-3.3,4.4-4.2l9.9-4.7l7.5,19.6
					C384.4,470.4,385.3,470.9,386.6,470.4z M371.9,455.5l-4.1,1.9c-1.2,0.6-1.5,1.7-0.9,3.3l4.8,12.7c0.8,2.2,2.2,2.9,4,2
					c0.9-0.4,1.5-1.1,1.9-2.2s0.3-2.1,0-3.1L371.9,455.5z"/>
				<path class="st3" d="M396.1,437.2l3.4,6.5l-2.9,1.8l-1.7-3.1c-0.9,1.3-1.4,2.9-1.4,4.7c0,1.9,0.4,3.6,1.2,5.2l6.9,13l-5.4,3.4
					l-10.8-20.7l-1.5,1l-1.6-3.1l6.9-4.3l1.1,2c0.6-2.2,2-3.9,4.1-5.3L396.1,437.2z"/>
				<path class="st3" d="M425.1,446.2c-0.4,1.9-1.6,3.6-3.3,5l-5.9,4.7l-2-2.9l4-3.2c1.5-1.2,1.7-2.6,0.4-4.3
					c-0.7-0.9-1.6-1.5-2.7-1.7l-6-1.4c-2-0.5-3.5-1.4-4.6-2.8c-1.4-1.8-1.9-3.8-1.3-5.9c0.5-1.9,1.5-3.5,3.2-4.8l4.1-3.3l2,2.9
					l-2.9,2.3c-1.2,1-1.5,1.9-0.9,2.7c0.4,0.4,0.9,0.8,1.5,0.9l7.6,2.1c2.3,0.7,4.2,1.8,5.5,3.4C425.1,442,425.6,444,425.1,446.2z"
					/>
			</g>
		</g>
	</g>
	<g>
		
			<image style="overflow:visible;opacity:0.75;" width="2107" height="1234" xlink:href="5C39F91A.png"  transform="matrix(0.24 0 0 0.24 33.7212 34.1445)">
		</image>
		<g>
			<g>
				<path class="st3" d="M37.4,287.5l6.8-0.1l0.9,8.9l69.4-1.4l1.2,12.4l-69.4,1.3l0.9,8.9l-6.8,0.1L37.4,287.5z"/>
				<path class="st3" d="M112.9,235.5l6.7,1.6l-0.7,4.8c-0.5,3-1.7,5.3-3.7,6.9c-2.2,1.8-5,2.3-8.3,1.5l-26.4-6.2
					c-5.1-1.2-7.9-0.1-8.4,3.2l-0.8,5l44.1,10.5l-1.9,12.3L46,258.9l-0.6,3.6l-6.7-1.6l2.5-15.8l23.1,5.5l0.8-5
					c0.8-4.9,2.6-8.6,5.4-11.1c3.2-2.9,7.5-3.8,12.8-2.5l25.6,6c1.5,0.4,2.5,0.3,3.2-0.2C112.4,237.5,112.7,236.7,112.9,235.5z"/>
				<path class="st3" d="M101.4,183.2l-2.5,5.7c-1.9-1-3.7-1.3-5.5-0.8c-1.8,0.5-3.1,1.5-4,2.9c-1.1,2-1.1,4,0.2,6
					c1.2,2,3,3.5,5.3,4.5c4,1.8,6.6,1.4,7.8-1.3l4.7-10.5l6,3.3l-4.6,10.4c-0.7,1.5-0.4,3.1,0.8,4.8c1.2,1.6,2.8,2.9,4.9,3.9
					c2,0.9,3.8,1.1,5.5,0.8c1.7-0.3,2.9-1.5,3.6-3.3c0.6-1.6,0.5-3.3-0.3-5.1c-0.7-1.8-2.1-3.3-4.1-4.4l2.5-5.7
					c4.1,2.2,6.8,5.4,7.9,9.4c1,3.7,0.6,7.5-1.1,11.4c-1.7,3.7-4.4,6.4-8.1,8.1c-3.9,1.8-7.7,1.7-11.4-0.2c-4.3-2.2-6.9-5.8-8-10.6
					c-4.7,1.7-8.8,1.5-12.5-0.4c-3.9-2.2-6.4-5.5-7.4-10c-1-4.1-0.6-8.1,1.1-11.9c1.8-4,4.3-6.6,7.5-8
					C93.3,180.6,97.2,181,101.4,183.2z"/>
				<path class="st3" d="M142.3,101.4l4.5,5.6c2.8,3.6,4.2,7.7,4,12.5c5-0.4,9.2,1.6,12.8,6l7.5,9.4c2.8,3.4,4.1,7.3,4,11.7
					c-0.1,4.4-1.6,7.9-4.5,10.6l-15,14.1l-43.4-54.1l-2.6,2.4l-4.4-5.4l16.6-15.6c2.9-2.7,6.3-3.8,10.4-3.3
					C136.2,95.9,139.6,97.9,142.3,101.4z M132,108.4c-1.2-1.5-2.7-2.4-4.5-2.6c-1.8-0.3-3.3,0.2-4.6,1.4l-1.8,1.7l15.9,19.8l2.3-2.2
					c1-1.3,1.4-2.8,1.4-4.6c-0.1-1.8-0.6-3.3-1.7-4.7L132,108.4z M153.4,132.4c-1.2-1.4-2.6-2.3-4.4-2.6c-1.7-0.3-3.2,0.1-4.4,1.2
					l-3.2,3l18.9,23.6l2.9-2.7c1.3-1.2,1.9-2.8,1.9-4.7c0-1.9-0.6-3.7-1.8-5.2L153.4,132.4z"/>
				<path class="st3" d="M221.4,117.2l2.7,6.4l-3.9,2c-3.9,2-7.3,2.2-10.4,0.6c-1.1,3.8-3.3,6.5-6.6,8.2l-1.7,0.9
					c-3.7,1.9-7.5,2.5-11.3,1.6c-4.2-0.9-7.1-3.5-8.9-7.7l-9-21.4c-1.7-4.1-1.6-8.3,0.4-12.5c1.8-3.7,4.6-6.6,8.4-8.5l19.1-9.9
					l16,37.8C217.3,117.5,219,118.3,221.4,117.2z M191.8,89.1l-7.9,4.1c-2.4,1.2-2.9,3.4-1.5,6.6l10.4,24.5c1.8,4.3,4.4,5.5,7.9,3.7
					c1.7-0.9,2.9-2.3,3.5-4.4c0.6-2,0.5-4-0.3-6L191.8,89.1z"/>
				<path class="st3" d="M253.1,63l2,14.3l-6.6,1.5l-1-6.8c-2.5,1.8-4.4,4.4-5.7,7.8c-1.3,3.5-1.6,6.9-1.1,10.3l4.2,28.5l-12.1,2.7
					l-6.5-45.2l-3.4,0.8l-1-6.9l15.5-3.5L238,71c2.5-3.6,6.2-5.9,11.1-7.1L253.1,63z"/>
				<path class="st3" d="M314.6,77.5l-2.8,23c-0.6,4.8-2.9,8.5-7,11c-3.4,2.1-7.4,3.1-11.9,2.9c-4.3-0.2-7.5-1.7-9.7-4.6
					c-2.7,2.7-6.1,4-10.3,3.8l-4.6-0.2l0.8-6.9c2.7,0,4.2-1.5,4.5-4.5l7.7-64.3l17.2,0.7l-0.7,6.9l-4.7-0.2l-2,16.7l8.9,0.4
					c4.2,0.2,7.8,1.5,10.6,4.1C313.9,69.4,315.2,73.1,314.6,77.5z M302.6,74.5c0.4-3.4-0.7-5.2-3.3-5.3l-8.9-0.4l-3.7,30.8
					c-0.3,2.1,0.2,4,1.4,5.5c1.2,1.6,2.8,2.4,4.7,2.5c3.9,0.2,6.1-2.1,6.7-6.7L302.6,74.5z"/>
				<path class="st3" d="M362,91l-5.9-1.8c0.8-2,0.9-3.8,0.2-5.5c-0.7-1.7-1.8-2.9-3.4-3.6c-2.1-0.9-4.1-0.6-6,0.9
					c-1.8,1.4-3.1,3.4-3.9,5.8c-1.3,4.2-0.6,6.7,2.2,7.6l11,3.4l-2.6,6.3l-10.9-3.4c-1.6-0.5-3.1-0.1-4.6,1.3
					c-1.5,1.4-2.6,3.1-3.3,5.3c-0.6,2-0.7,3.9-0.1,5.6c0.5,1.7,1.8,2.8,3.7,3.2c1.6,0.4,3.3,0.1,5.1-0.9c1.7-0.9,3.1-2.5,3.9-4.6
					l5.9,1.8c-1.7,4.4-4.6,7.3-8.4,9c-3.6,1.4-7.4,1.5-11.5,0.2c-3.9-1.2-6.9-3.6-9-7.1c-2.2-3.7-2.6-7.4-1.1-11.4
					c1.7-4.5,4.9-7.6,9.6-9.1c-2.2-4.4-2.5-8.6-1-12.4c1.7-4.2,4.7-7,9.1-8.5c4-1.4,7.9-1.5,12-0.3c4.1,1.3,7.1,3.5,8.8,6.5
					C363.7,82.7,363.8,86.6,362,91z"/>
				<path class="st3" d="M413.3,102.7l-8.4,11.7L399,111l3.9-5.6c-3-0.5-6.2,0.1-9.5,1.8c-3.3,1.6-5.9,3.9-7.9,6.7l-16.6,23.5
					l-10.7-6.4l26.4-37.3l-3-1.8l4-5.7l13.7,8.1l-2.5,3.7c4.3-0.9,8.6-0.1,12.9,2.5L413.3,102.7z"/>
				<path class="st3" d="M491.3,151.5l-5.8,3.7l-8.7-11.5c-0.7-0.9-1.7-1.3-3.2-1.3s-2.9,0.5-4.4,1.5l-40.9,26.2
					c-2.3,1.5-3.7,3.2-4,5.1c-0.3,1.6,0.2,3.1,1.5,4.6c1.2,1.4,2.9,2.2,4.9,2.5s4-0.2,5.8-1.3l3.8,5c-3.4,2.2-7.1,3-11.1,2.5
					c-4-0.5-7.1-2.2-9.3-5.1c-1.7-2.3-2.8-3.9-3.3-4.9c-1.6-3.2-2.2-6.4-1.6-9.6c0.6-3.6,2.6-6.4,5.8-8.5l39.4-25.3
					c3.9-2.5,7.9-3.3,12-2.5c3.8,0.9,6.9,2.9,9.4,6.2L491.3,151.5z"/>
				<path class="st3" d="M509.6,187.7l-59.1,22.8c-3.5,1.3-4.7,3.3-3.8,6l-6.4,2.6l-0.9-1.8c-2-4.1-2.4-7.7-1.4-11
					c1-3.2,3.4-5.6,7.1-7l52.7-20.2l-1.4-3l6.5-2.5L509.6,187.7z"/>
				<path class="st3" d="M459.8,264.8l-6.9,1l-4.8-21.7c-1-4.5-0.5-8.4,1.4-11.6c2.1-3.5,5.8-5.5,10.9-6.2l29.4-4.2l-0.7-3.2l6.9-1
					l3.4,15.2l-38,5.5c-1.9,0.3-3.5,1-4.7,2.1c-1.2,1.1-1.7,2.4-1.4,3.9l1,4.4l45.2-6.4l2.7,12.2l-45.2,6.4L459.8,264.8z"/>
				<path class="st3" d="M488.6,319.7l-23-3.3c-4.8-0.7-8.4-3.1-10.8-7.3c-2.1-3.5-2.9-7.5-2.6-12c0.3-4.3,1.9-7.5,4.9-9.6
					c-2.7-2.7-3.8-6.2-3.6-10.4l0.3-4.5l6.9,1c0,2.7,1.4,4.2,4.4,4.7l64.1,9.3l-1.1,17.2l-6.9-0.9l0.3-4.7l-16.6-2.4l-0.6,8.9
					c-0.3,4.2-1.7,7.7-4.4,10.5C496.8,319.2,493,320.4,488.6,319.7z M491.9,307.8c3.4,0.5,5.2-0.6,5.4-3.2l0.6-8.9l-30.7-4.5
					c-2.1-0.3-4,0.1-5.6,1.3c-1.6,1.2-2.5,2.7-2.6,4.6c-0.3,3.9,1.9,6.2,6.5,6.8L491.9,307.8z"/>
			</g>
		</g>
	</g>
	<g>
		
			<image style="overflow:visible;opacity:0.75;" width="723" height="1177" xlink:href="5C39F919.png"  transform="matrix(0.24 0 0 0.24 200.0264 145.4746)">
		</image>
		<g>
			<g>
				<g>
					<polygon class="st3" points="236.4,417.7 236.5,417.7 236.5,417.7 236.5,417.7 236.6,417.7 236.7,417.6 236.7,417.6 
						236.8,417.5 237,417.3 237.1,417 237.2,416.7 237.2,416.4 238,395.4 238.4,394.7 238.8,394 239,394.1 239.1,394.3 239.2,394.6 
						239.3,394.9 239.4,397.6 239.5,400.4 239.6,403 239.7,405.7 239.8,408.3 239.9,411 240,413.8 240.1,416.4 240.3,416.9 
						240.4,417.3 240.6,417.6 240.9,417.7 241,417.6 241.3,417.3 241.5,416.9 241.5,416.4 241.7,413.8 241.8,411 241.8,408.3 
						242,405.7 242.1,403 242.2,400.4 242.3,397.6 242.4,394.9 242.5,394.5 242.6,394.2 242.8,394 243,394 243.2,394 243.4,394.2 
						243.5,394.5 243.6,394.9 243.7,397.6 243.8,400.4 243.9,403 244,405.7 244.1,408.3 244.2,411 244.4,413.8 244.4,416.4 
						244.6,416.9 244.7,417.3 245,417.6 245.2,417.7 245.4,417.6 245.6,417.3 245.8,416.9 245.8,416.4 246,413.8 246.1,411 
						246.2,408.3 246.3,405.7 246.4,403 246.5,400.4 246.6,397.6 246.7,394.9 246.8,394.5 247,394.2 247.1,394 247.3,394 247.5,394 
						247.7,394.2 247.8,394.5 247.9,394.9 248.1,397.6 248.1,400.4 248.2,403 248.4,405.7 248.4,408.3 248.6,411 248.7,413.8 
						248.7,416.4 248.9,416.9 249,417.3 249.3,417.6 249.5,417.7 249.7,417.6 249.9,417.3 250.1,416.9 250.2,416.4 250.3,413.8 
						250.4,411 250.5,408.3 250.6,405.7 250.7,403 250.8,400.4 250.9,397.6 251,394.9 251.1,394.5 251.3,394.2 251.4,394 251.6,394 
						251.8,394 252,394.2 252.1,394.5 252.2,394.9 252.4,397.6 252.4,400.4 252.5,403 252.7,405.7 252.8,408.3 252.9,411 253,413.8 
						253.1,416.4 253.2,416.9 253.3,417.3 253.6,417.6 253.8,417.7 254,417.6 254.2,417.3 254.4,416.9 254.5,416.4 254.6,413.8 
						254.7,411 254.8,408.3 254.9,405.7 255,403 255.1,400.4 255.3,397.6 255.3,394.9 255.4,394.5 255.6,394.2 255.7,394 255.9,394 
						256.1,394 256.3,394.2 256.5,394.5 256.5,394.9 256.7,397.6 256.8,400.4 256.9,403 257,405.7 257.1,408.3 257.2,411 
						257.3,413.8 257.4,416.4 257.5,416.9 257.6,417.3 257.9,417.6 258.1,417.7 258.3,417.6 258.5,417.3 258.8,416.9 258.8,416.4 
						258.9,413.8 259,411 259.1,408.3 259.2,405.7 259.3,403 259.4,400.4 259.6,397.6 259.7,394.9 259.7,394.5 259.9,394.2 260,394 
						260.3,394 260.5,394 260.6,394.2 260.8,394.5 260.8,394.9 261,397.6 261.1,400.4 261.2,403 261.3,405.7 261.4,408.3 261.5,411 
						261.6,413.8 261.7,416.4 261.8,416.9 262,417.3 262.2,417.6 262.4,417.7 262.6,417.6 262.9,417.3 263.1,416.9 263.1,416.4 
						263.2,413.8 263.4,411 263.4,408.3 263.6,405.7 263.7,403 263.7,400.4 263.9,397.6 264,394.9 264,394.5 264.2,394.2 264.4,394 
						264.6,394 264.8,394 265,394.2 265.1,394.5 265.2,394.9 265.3,397.6 265.4,400.4 265.5,403 265.6,405.7 265.7,408.3 265.8,411 
						265.9,413.8 266,416.4 266.1,416.9 266.3,417.3 266.6,417.6 266.7,417.7 266.9,417.6 267.2,417.3 267.4,416.9 267.4,416.4 
						267.5,413.8 267.7,411 267.7,408.3 267.9,405.7 268,403 268.1,400.4 268.2,397.6 268.3,394.9 268.4,394.5 268.5,394.2 
						268.7,394 268.9,394 269.1,394 269.3,394.2 269.4,394.5 269.5,394.9 269.6,397.6 269.7,400.4 269.8,403 269.9,405.7 270,408.3 
						270.1,411 270.3,413.8 270.3,416.4 270.4,416.9 270.6,417.3 270.9,417.6 271.1,417.7 271.2,417.6 271.5,417.3 271.7,416.9 
						271.8,416.4 271.9,413.8 272,411 272.1,408.3 272.2,405.7 272.3,403 272.4,400.4 272.5,397.6 272.6,394.9 272.7,394.5 
						272.8,394.2 273,394 273.2,394 273.4,394 273.6,394.2 273.7,394.5 273.8,394.9 273.9,397.6 274,400.4 274.1,403 274.2,405.7 
						274.3,408.3 274.4,411 274.6,413.8 274.7,416.4 274.7,416.9 274.9,417.3 275.2,417.6 275.4,417.7 275.5,417.6 275.8,417.3 
						276,416.9 276.1,416.4 276.2,413.8 276.3,411 276.4,408.3 276.5,405.7 276.6,403 276.7,400.4 276.8,397.6 276.9,394.9 
						277,394.5 277.1,394.2 277.3,394 277.5,394 277.7,394 277.9,394.2 278.1,394.5 278.1,394.9 278.2,397.6 278.4,400.4 278.4,403 
						278.6,405.7 278.7,408.3 278.7,411 278.9,413.8 279,416.4 279,416.9 279.2,417.3 279.5,417.6 279.7,417.7 279.9,417.6 
						280.1,417.3 280.3,416.9 280.4,416.4 280.5,413.8 280.6,411 280.7,408.3 280.8,405.7 280.9,403 281,400.4 281.1,397.6 
						281.3,394.9 281.3,394.5 281.5,394.2 281.6,394 281.8,394 281.9,394 282,394 282.1,394 282.1,394 282.3,394 282.5,394.2 
						282.7,394.5 282.7,394.9 282.9,397.6 283,400.4 283,403 283.2,405.7 283.3,408.3 283.3,411 283.5,413.8 283.6,416.4 
						283.7,416.9 283.8,417.3 284.1,417.6 284.3,417.7 284.5,417.6 284.7,417.3 284.9,416.9 285,416.4 285.1,413.8 285.2,411 
						285.3,408.3 285.4,405.7 285.6,403 285.6,400.4 285.7,397.6 285.9,394.9 285.9,394.5 286.1,394.2 286.3,394 286.5,394 
						286.7,394 286.8,394.2 287,394.5 287.1,394.9 287.2,397.6 287.3,400.4 287.4,403 287.5,405.7 287.6,408.3 287.7,411 
						287.8,413.8 287.9,416.4 288,416.9 288.2,417.3 288.4,417.6 288.6,417.7 288.8,417.6 289.1,417.3 289.2,416.9 289.3,416.4 
						289.4,413.8 289.6,411 289.6,408.3 289.7,405.7 289.9,403 289.9,400.4 290,397.6 290.2,394.9 290.2,394.5 290.4,394.2 
						290.6,394 290.8,394 291,394 291.2,394.2 291.3,394.5 291.4,394.9 291.5,397.6 291.6,400.4 291.7,403 291.8,405.7 291.9,408.3 
						292,411 292.1,413.8 292.2,416.4 292.3,416.9 292.5,417.3 292.8,417.6 292.9,417.7 293.1,417.6 293.4,417.3 293.6,416.9 
						293.6,416.4 293.7,413.8 293.9,411 294,408.3 294,405.7 294.2,403 294.3,400.4 294.4,397.6 294.5,394.9 294.6,394.5 
						294.7,394.2 294.9,394 295.1,394 295.3,394 295.5,394.2 295.6,394.5 295.7,394.9 295.8,397.6 295.9,400.4 296,403 296.1,405.7 
						296.2,408.3 296.3,411 296.4,413.8 296.5,416.4 296.6,416.9 296.8,417.3 297.1,417.6 297.2,417.7 297.4,417.6 297.7,417.3 
						297.9,416.9 298,416.4 298,413.8 298.2,411 298.3,408.3 298.3,405.7 298.5,403 298.6,400.4 298.7,397.6 298.8,394.9 
						298.9,394.5 299,394.2 299.2,394 299.4,394 299.6,394 299.8,394.2 299.9,394.5 300,394.9 300.1,397.6 300.2,400.4 300.3,403 
						300.4,405.7 300.6,408.3 300.6,411 300.7,413.8 300.9,416.4 300.9,416.9 301.1,417.3 301.4,417.6 301.5,417.7 301.7,417.6 
						302,417.3 302.2,416.9 302.3,416.4 302.4,413.8 302.5,411 302.6,408.3 302.7,405.7 302.8,403 302.9,400.4 303,397.6 
						303.1,394.9 303.2,394.5 303.3,394.2 303.5,394 303.7,394 303.9,394 304.1,394.2 304.3,394.5 304.3,394.9 304.4,397.6 
						304.6,400.4 304.6,403 304.7,405.7 304.9,408.3 304.9,411 305.1,413.8 305.2,416.4 305.2,416.9 305.4,417.3 305.7,417.6 
						305.9,417.7 306.1,417.6 306.3,417.3 306.5,416.9 306.6,416.4 306.7,413.8 306.8,411 306.9,408.3 307,405.7 307.1,403 
						307.2,400.4 307.3,397.6 307.4,394.9 307.5,394.5 307.7,394.2 307.8,394 308.1,394 308.2,394 308.4,394.2 308.6,394.5 
						308.6,394.9 308.7,397.6 308.9,400.4 309,403 309,405.7 309.2,408.3 309.3,411 309.4,413.8 309.5,416.4 309.5,416.9 
						309.8,417.3 310,417.6 310.2,417.7 310.4,417.6 310.6,417.3 310.8,416.9 310.9,416.4 311,413.8 311.1,411 311.2,408.3 
						311.3,405.7 311.4,403 311.5,400.4 311.6,397.6 311.8,394.9 311.8,394.5 312,394.2 312.2,394 312.4,394 312.6,394 312.7,394.2 
						312.9,394.5 313,394.9 313,397.6 313.2,400.4 313.3,403 313.4,405.7 313.5,408.3 313.6,411 313.7,413.8 313.8,416.4 
						313.9,416.9 314.1,417.3 314.3,417.6 314.5,417.7 314.7,417.6 314.9,417.3 315.1,416.9 315.2,416.4 315.3,413.8 315.4,411 
						315.5,408.3 315.6,405.7 315.7,403 315.9,400.4 315.9,397.6 316.1,394.9 316.2,394.5 316.3,394.2 316.5,394 316.7,394 
						316.9,394 317,394.2 317.2,394.5 317.3,394.9 317.4,397.6 317.5,400.4 317.6,403 317.7,405.7 317.8,408.3 317.9,411 318,413.8 
						318.1,416.4 318.2,416.9 318.4,417.3 318.6,417.6 318.8,417.7 319,417.6 319.3,417.3 319.4,416.9 319.6,416.4 319.6,413.8 
						319.7,411 319.9,408.3 319.9,405.7 320.1,403 320.2,400.4 320.2,397.6 320.4,394.9 320.5,394.5 320.6,394.2 320.8,394 321,394 
						321.2,394 321.3,394.2 321.5,394.5 321.6,394.9 321.7,397.6 321.8,400.4 321.9,403 322,405.7 322.1,408.3 322.2,411 
						322.3,413.8 322.5,416.4 322.5,416.9 322.7,417.3 322.9,417.6 323.1,417.7 323.3,417.6 323.6,417.3 323.7,416.9 323.9,416.4 
						323.9,413.8 324,411 324.2,408.3 324.3,405.7 324.4,403 324.5,400.4 324.6,397.6 324.7,394.9 324.8,394.5 324.9,394.2 
						325.1,394 325.3,394 325.5,394 325.6,394.2 325.8,394.5 325.9,394.9 326,397.6 326.1,400.4 326.2,403 326.3,405.7 326.4,408.3 
						326.5,411 326.6,413.8 326.8,416.4 326.8,416.9 327,417.3 327.2,417.6 327.4,417.7 327.5,417.7 327.5,417.7 327.7,417.6 
						327.9,417.3 328,417.5 328.2,417.6 328.4,417.7 328.5,417.7 332,417 335.2,416.2 338.3,415.2 341.1,414.1 343.6,412.8 
						345.9,411.5 348.1,410.1 350.1,408.5 351.8,406.9 353.4,405.3 354.8,403.5 356,401.8 357.1,400 358,398.2 358.8,396.4 
						359.5,394.6 360,392.8 360.4,391.1 360.7,389.5 360.9,387.9 361.1,386.3 361.1,384.8 361,383.4 360.9,382.2 360.8,381 
						360.5,379.9 360.3,379.1 360,378.3 359.6,377.7 359.3,377.4 359,377.1 358.6,377.1 357.4,378.3 356.1,379.5 355,380.5 
						353.8,381.4 352.6,382 351.5,382.6 350.4,383.1 349.3,383.6 348.1,383.8 347,384 346,384.1 345,384.1 343.9,384 342.9,383.8 
						341.8,383.6 340.8,383.3 339.8,382.9 338.9,382.5 337.9,382 336.9,381.4 335.9,380.9 334.9,380.2 334,379.6 333.1,378.9 
						329.3,376 325.6,373.1 323.4,371.3 321,369.5 318.5,367.8 315.9,366 314.5,365.2 313.2,364.4 311.8,363.6 310.4,362.9 
						309,362.2 307.6,361.6 306.2,361.1 304.8,360.6 303.4,360.2 301.9,359.9 300.5,359.6 299.1,359.5 297.6,359.5 296.2,359.6 
						294.8,359.8 293.4,360.1 292,360.6 290.5,361.1 289.1,361.9 287.8,362.7 286.4,363.7 285.1,364.9 283.7,366.2 282.4,367.8 
						281.1,366.2 279.8,364.9 278.4,363.7 277.1,362.7 275.7,361.9 274.3,361.1 272.9,360.6 271.5,360.1 270.1,359.8 268.7,359.6 
						267.2,359.5 265.8,359.5 264.4,359.6 262.9,359.9 261.5,360.2 260,360.6 258.6,361.1 257.2,361.6 255.8,362.2 254.4,362.9 
						253,363.6 251.7,364.4 250.3,365.2 249,366 246.4,367.8 243.9,369.5 241.5,371.3 239.1,373.1 235.5,376 231.8,378.9 
						230.8,379.6 229.9,380.2 228.9,380.9 228,381.4 227,382 226,382.5 225,382.9 224,383.3 223,383.6 222,383.8 220.9,384 
						219.9,384.1 218.9,384.1 217.7,384 216.7,383.8 215.6,383.6 214.5,383.1 213.3,382.6 212.2,382 211,381.4 209.9,380.5 
						208.6,379.5 207.4,378.3 206.2,377.1 205.9,377.1 205.5,377.4 205.2,377.7 204.8,378.3 204.5,379.1 204.3,379.9 204.1,381 
						203.9,382.2 203.8,383.4 203.7,384.8 203.8,386.3 203.9,387.9 204.1,389.5 204.4,391.1 204.8,392.8 205.4,394.6 206,396.4 
						206.8,398.2 207.7,400 208.8,401.8 210.1,403.5 211.5,405.3 213,406.9 214.8,408.5 216.7,410.1 218.9,411.5 221.2,412.8 
						223.8,414.1 226.5,415.2 229.6,416.2 232.8,417 236.3,417.7 236.4,417.7 236.4,417.7 					"/>
					<path class="st3" d="M330.7,312.4l-0.1-1.1l-0.1-1.1l-0.2-1l-0.2-1.1l-0.3-1l-0.3-1l-0.3-1l-0.4-0.9l-0.4-0.9l-0.4-0.8
						l-0.4-0.7l-0.4-0.7l-0.4-0.7l-0.8-0.9l-0.7-0.8l-0.8-0.8l-0.8-0.7l-0.9-0.6l-0.9-0.6l-1-0.5l-1-0.5l-1-0.4l-1-0.3l-1.1-0.3
						l-1.2-0.2l-1.1-0.2l-1.2-0.1l-1.3,0l-1.3,0l-1.6,0.1l-1.3,0.2l-1.1,0.1l-1,0.3l-1.9,0.7l-2.5,1l-1.2,0.4l-1,0.3l-0.8,0.1
						l-0.7,0l-0.7,0l-0.6,0.1l-0.7,0.1l-0.7,0.3l-0.3,0.2l-0.3,0.3l-0.3,0.4l-0.3,0.5l-0.2,0.3l-0.1,0.3l-0.1,0.3l0,0.3l0,0.4
						l0.1,0.3l0.2,0.3l0.2,0.3l0.2,0.3l0.2,0.4l0.1,0.4l0.1,0.4l0.1,0.4l0.1,0.4l0,0.4l0,0.4l-0.1,0.8l-0.2,0.8l-0.2,0.7l-0.2,0.8
						l-0.4,0.9l-0.2,0.9l-0.2,0.9l-0.2,0.9l-0.2,0.8l-0.1,0.8l-0.1,0.8l-0.1,0.8l-0.1,1.5l0.1,1.6l0.2,1.6l0.3,1.5l0.4,1.6l0.5,1.5
						l0.5,1.5l0.6,1.6l0.7,1.5l0.7,1.6l0.8,1.5l0.8,1.6l0.5,1l0.4,1l0.3,1l0.3,1l0.2,1l0,1l0,1l0,1l-0.1,1l-0.2,1l-0.3,1.1l-0.3,1
						l-0.3,1l-0.4,1l-0.5,1l-0.5,1l-0.7,1.2l-0.7,1.2l-0.8,1.3l-0.8,1.3l-0.7,1.2l-0.8,1.2l-0.8,1.2l-0.7,1.1l-1.4,2.2l-1.3,2.1
						l-1.3,2l-1.3,2l-1.3,2l-1.4,2l-0.9,1.3l-0.2-0.1l-0.6-0.5l-0.5-0.5l-1.1-1.2l-1-1.2l-0.9-1.4l-0.8-1.4l-0.8-1.4l-0.7-1.5
						l-0.7-1.5l-0.6-1.5l-0.6-1.5l-0.6-1.5l-1-2.9l-0.9-2.6l-0.5-1.5l-0.4-1.8l-0.3-2l-0.3-2.2l-0.1-1.2l-0.1-1.2l0-1.2l0-1.1
						l0.1-1.2l0.1-1.1l0.2-1.1l0.3-1.1l0.2-0.7l0.2-0.6l0.2-0.5l0.3-0.5l0.5-0.8l0.5-0.7l0.6-0.7l0.6-0.7l0.6-0.8l0.6-0.9l0.8-1.4
						l0.7-1.4l0.6-1.4l0.5-1.5l0.4-1.6l0.3-1.5l0.2-1.6l0.1-1.6l0-1.6l-0.1-1.5l-0.2-1.5l-0.2-1.6l-0.3-1.5l-0.5-1.5l-0.5-1.4
						l-0.6-1.4l-0.4-0.8l-0.5-0.8l-0.5-0.7l-0.5-0.8l-0.6-0.8l-0.6-0.7l-0.7-0.7l-0.8-0.7l-0.8-0.7l-0.9-0.6l-1-0.7l-1-0.6l-1.1-0.6
						l-1.2-0.6l-1.3-0.6l-1.4-0.5l-2.6-1.1l-2.1-0.9l-1-0.4l-0.9-0.4l-0.9-0.5l-0.8-0.5l-0.7-0.5l-0.8-0.6l-0.7-0.6l-0.7-0.7
						l-0.7-0.8l-0.7-1l-0.8-1.1l-0.8-1.2l-0.9-1.2l-0.9-1.2l-1-1.1l-1.1-1l-1.2-0.9l-1.2-0.9l-0.6-0.4l-0.7-0.3l-0.6-0.4l-0.6-0.2
						l-0.7-0.3l-0.6-0.2l-0.7-0.2l-0.7-0.1l-0.7-0.1l-0.7-0.1l-0.7-0.1l-0.7,0l-0.7,0l-0.7,0.1l-0.8,0.1l-0.7,0.1l-0.7,0.2l-0.8,0.2
						l-0.8,0.3l-0.7,0.3l-0.4,0.6l-0.4,0.6l-0.1,0.3l-0.1,0.2l0,0.3l0,0.3l0,0.2l0.1,0.2l0.1,0.2l0.2,0.1l0.2,0.1l0.3,0.1l0.4,0
						l0.4,0l0.9,0l0.9,0.1l0.8,0.1l0.8,0.1l0.8,0.2l0.8,0.1l0.7,0.2l0.7,0.2l0.7,0.3l0.6,0.2l0.7,0.3l0.6,0.3l0.6,0.4l0.6,0.4
						l0.5,0.4l0.6,0.4l0.5,0.5l0.5,0.5l0.4,0.5l0.5,0.5l0.4,0.5l0.3,0.6l0.4,0.5l0.3,0.6l0.3,0.6l0.2,0.6l0.2,0.7l0.2,0.6l0.1,0.7
						l0.1,0.7l0.1,0.7l0.1,0.7l0,1.1l0,1l0,0.9l-0.1,0.8l-0.2,0.7l-0.2,0.7l-0.2,0.6l-0.3,0.6l-0.5,1.2l-0.6,1.3l-0.7,1.4l-0.7,1.7
						l-0.5,1.5l-0.4,1.6l-0.2,1.6l-0.2,1.6l0,1.6l0.1,1.6l0.1,1.6l0.3,1.6l0.4,1.6l0.5,1.6l0.6,1.5l0.7,1.5l0.4,0.8l0.4,0.7l0.4,0.7
						l0.4,0.7l0.5,0.7l0.6,0.6l0.5,0.7l0.6,0.6l0.6,0.6l0.7,0.5l0.8,0.6l0.8,0.6l1.6,1.1l1.8,1l1.8,1.1l1.8,1.1l1.8,1.1l1.6,1.2
						l1.1,0.8l1,0.9l0.9,0.9l0.7,0.9l0.6,1l0.5,1l0.4,1l0.3,1l0.2,1.1l0.1,1.1l0.1,1.2l0,1.2l-0.1,1.2l-0.1,1.3l-0.1,1.3l-0.2,1.4
						l-0.2,0.8l-0.1,0.8l-0.1,0.7l0.1,0.7l0.1,0.6l0.2,0.6l0.2,0.6l0.4,0.5l0.4,0.5l0.5,0.5l0.5,0.5l0.5,0.5l1.1,1l1.1,1l0.6,0.6
						l0.7,0.8l0.7,1l0.7,1.3l0.4,0.7l0.4,0.9l0.4,1l0.4,1.1l0.4,1.2l0.4,1.3l0.4,1.4l0.4,1.6l3,8.2l1,2.8l0.6,2.5l1,4.3l15.8-4
						l-0.8-5.1l-0.2-1.6l-0.2-1.6l-0.1-1.6l-0.1-1.6l-0.1-1.6l0-1.5l0.1-1.5l0.1-1.5l0.1-1.5l0.1-1.5l0.2-1.4l0.2-1.4l0.2-1.4
						l0.3-1.4l0.3-1.4l0.4-1.4l0.7-2.7l0.9-2.6l0.9-2.5l1-2.5l1-2.4l1.1-2.3l1.2-2.2l1.3-2.1l0.5-0.6l0.5-0.6l0.6-0.5l0.6-0.5
						l1.2-0.9l1.4-0.8l1.5-0.8l1.5-0.8l1.7-0.9l1.7-1l1.7-1l1.6-1.1l1.4-1.1l1.3-1.1l1.2-1.1l1-1.2l1-1.2l0.8-1.2l0.8-1.2l0.7-1.2
						l0.6-1.2l0.5-1.2l0.4-1.2l0.3-1.2l0.2-1.2l0.2-1.2l0.1-1.2l0.1-1.2L330.7,312.4z M269,326l-0.6,0.6l-0.6,0.6l-0.6,0.5l-0.7,0.4
						l-0.7,0.4l-0.7,0.3l-0.7,0.3l-0.8,0.2l-0.8,0.2l-0.8,0.2l-0.8,0.1l-0.8,0l-0.8,0l-0.8-0.1l-0.9-0.1l-0.8-0.2l-0.9-0.3l-0.9-0.3
						l-0.9-0.4l-0.9-0.5l-0.8-0.5l-1.1-0.8l-1-0.9l-1-0.9l-0.9-1l-0.9-1.1l-0.7-1.2l-0.7-1.2l-0.6-1.4l-0.5-1.3l-0.3-1.5l-0.1-0.7
						l-0.1-0.7l0-0.7l0-0.8l0-0.7l0-0.8l0-0.8l0.1-0.8l0.1-0.8l0.2-0.8l0.2-0.8l0.3-0.8l0.7-1.5l0.7-1.4l0.8-1.3l1-1.1l1-1l1.1-0.8
						l1.1-0.7l1.1-0.5l1.2-0.4l1.3-0.3l1.3-0.2l1.3,0l1.3,0.1l1.3,0.2l1.3,0.3l1.3,0.4l1.2,0.6l1.2,0.6l1.1,0.7l1.1,0.8l1,0.9l0.9,1
						l0.9,1.1l0.8,1.2l0.6,1.2l0.6,1.4l0.4,1.4l0.3,1.5l0.2,1.6l0,1.7l-0.2,1.7l-0.4,1.8l-0.2,0.9l-0.3,0.9l-0.3,0.9l-0.3,0.9
						l-0.4,0.8l-0.5,0.8l-0.4,0.8l-0.5,0.7l-0.5,0.7l-0.5,0.7L269,326z M326.8,312.7l0,0.9l-0.1,0.8l-0.1,0.8l-0.1,0.8l-0.1,0.8
						l-0.2,0.9l-0.2,0.8l-0.3,0.8l-0.3,0.8l-0.4,0.8l-0.3,0.8l-0.4,0.7l-0.4,0.7l-0.5,0.7l-0.5,0.7l-0.5,0.7l-0.5,0.6l-0.6,0.6
						l-0.5,0.5l-0.6,0.5l-0.6,0.5l-0.6,0.5l-0.6,0.4l-0.7,0.4l-0.6,0.3l-0.6,0.3l-0.7,0.3l-0.7,0.3l-0.7,0.3l-0.7,0.2l-0.7,0.1
						l-0.6,0.1l-0.7,0l-0.7,0.1l-0.7,0l-0.7,0l-0.7-0.1l-0.7-0.1l-0.7-0.2l-0.7-0.2l-0.6-0.3l-0.7-0.3l-0.6-0.3l-0.6-0.4l-0.6-0.4
						l-0.5-0.4L303,328l-0.5-0.5L302,327l-0.5-0.6l-0.4-0.6l-0.4-0.6l-0.3-0.6l-0.3-0.7l-0.3-0.7l-0.3-0.7l-0.2-0.8l-0.2-0.7
						l-0.2-0.8l-0.1-0.8l-0.1-0.8l-0.1-0.7l0-0.8l0-0.8l0-0.8l0.1-0.8l0.1-0.9l0.1-0.8l0.2-0.8l0.2-0.8l0.2-0.9l0.2-0.8l0.3-0.8
						l0.4-0.9l0.4-0.7l0.4-0.8l0.4-0.7l0.4-0.7l0.5-0.7l0.5-0.6l0.5-0.6l0.5-0.6l0.6-0.6l0.5-0.5l0.6-0.5l0.6-0.5l0.6-0.4l0.6-0.4
						l0.6-0.3l0.6-0.3l0.7-0.3l0.7-0.3l0.7-0.2l0.7-0.2l0.6-0.1l0.7-0.1l0.7-0.1l0.7,0l0.7,0l0.7,0l0.7,0.1l0.7,0.1l0.7,0.2l0.6,0.2
						l0.7,0.3l0.6,0.3l0.6,0.3l0.6,0.4l0.6,0.4l0.5,0.5l0.5,0.4l0.5,0.5l0.5,0.6l0.5,0.6l0.4,0.6l0.4,0.7l0.3,0.6l0.3,0.6l0.3,0.7
						l0.3,0.7l0.2,0.7l0.2,0.7l0.1,0.8l0.1,0.7l0.1,0.8l0.1,0.8l0,0.8L326.8,312.7z"/>
					<polygon class="st5" points="281.3,371.6 281.8,371.5 282.1,371.5 282.5,371.4 282.9,371.4 283.3,371.4 283.7,371.5 
						284.1,371.6 284.5,371.8 284.8,371.9 285.1,372.1 285.4,372.4 285.7,372.6 286,372.9 286.2,373.2 286.4,373.6 286.6,374 
						286.7,374.4 286.8,374.8 286.9,375.2 286.9,375.6 286.9,375.9 286.8,376.4 286.7,376.7 286.5,377.1 286.4,377.5 286.1,377.8 
						285.9,378.1 285.6,378.4 285.3,378.7 285,378.9 284.6,379.1 284.3,379.3 283.9,379.4 283.5,379.5 283.1,379.5 282.7,379.5 
						282.3,379.5 281.9,379.5 281.5,379.3 281.1,379.2 280.8,379 280.5,378.8 280.2,378.6 279.9,378.3 279.6,378 279.4,377.7 
						279.2,377.3 279,376.9 278.9,376.6 278.8,376.1 278.7,375.8 278.7,375.3 278.7,375 278.9,374.6 278.9,374.2 279.1,373.8 
						279.2,373.5 279.5,373.1 279.7,372.8 280,372.6 280.3,372.3 280.6,372.1 281,371.8 281.3,371.6 					"/>
					<path class="st6" d="M281.8,372.8l0.6-0.1l0.6-0.1l0.6,0.1l0.6,0.2l-3.1,4.8l-0.2-0.2l-0.2-0.2l-0.2-0.3l-0.2-0.3l-0.1-0.6
						l-0.1-0.6l0.1-0.6l0.2-0.6l0.2-0.5l0.4-0.4l0.5-0.3L281.8,372.8L281.8,372.8z M284.7,373.3l0.2,0.2l0.2,0.2l0.1,0.3l0.2,0.3
						l0.1,0.6l0.1,0.6l-0.1,0.6l-0.2,0.5l-0.2,0.5l-0.4,0.4l-0.4,0.4l-0.6,0.2l-0.6,0.2h-0.6l-0.6-0.1l-0.6-0.2L284.7,373.3
						L284.7,373.3z"/>
				</g>
				<g>
					<path class="st6" d="M332,266.9c6.8,2.1,13.6,4.1,20.3,6.4c1.3,0.4,3.1,2.2,3,3c-0.2,1.3-1.8,2.9-3.1,3.4
						c-5,1.7-10.1,3.5-15.3,4.2c-34.9,4.7-68.6-0.3-100.6-15.1c-8.2-3.8-15.6-9.5-23.1-14.7c-1.4-1-1.8-3.4-2.7-5.2
						c1.8-0.8,3.6-2.3,5.4-2.2c6.6,0.2,13.1,0.7,19.7,1.4c2.8,0.3,4-0.2,5.1-3c10.9-29.7,14.1-60.3,11.3-91.6
						c-0.3-2.9,0.5-4.1,3.3-4.1c5.5,0,11.1-0.3,16.6,0.1c29.4,2.2,57.6,9.2,84.2,22.2c2.4,1.2,4.5,2.8,7.1,4.4
						c-18.7,27.5-30.5,57-34,90C330.5,266.4,331.2,266.6,332,266.9z M335.6,171.2c-0.8-0.2-2.4,1.6-2.9,2.7
						c-6,16.6-12.4,33.1-17.5,50c-4.1,13.7-6.6,27.9-9.7,41.8c-0.4,1.6-0.5,3.3-1,6.1c4.5-0.4,8.5-0.5,12.5-1.1
						c0.8-0.1,1.9-1.7,2.1-2.8c4.3-32.5,14.4-63.1,30.4-91.7c0.2-0.3,0.1-0.7,0.3-1.5C345,173.5,340.3,172.1,335.6,171.2z"/>
					<path class="st7" d="M349.7,174.8c-4.7-1.2-9.4-2.6-14.2-3.6c-0.8-0.2-2.4,1.6-2.9,2.7c-6,16.6-12.4,33.1-17.5,50
						c-4.1,13.7-6.6,27.9-9.7,41.8c-0.4,1.6-0.5,3.3-1,6.1c4.5-0.4,8.5-0.5,12.5-1.1c0.8-0.1,1.9-1.7,2.1-2.8
						c4.3-32.5,14.4-63.1,30.4-91.7C349.6,175.9,349.6,175.5,349.7,174.8z"/>
				</g>
			</g>
		</g>
	</g>
	<circle class="st1" cx="283.5" cy="283.5" r="267.9"/>
	<g>
		<g>
			<path class="st3" d="M476.7,367.2c1.9,5.3,8.5,2.8,9.1-2.1c0.5-4.2-4-11.9-8.9-8.5c-6.6,4.7-4.7,16.4-3.5,23
				c1,6,2.3,12.3,0.4,18.3c-2.1,7-9.9,12.4-16.8,7.8c-0.3-0.2-0.6,0.3-0.3,0.5c8.8,6.8,17.7-3.1,18.8-11.6
				c0.9-6.9-1.2-13.7-1.8-20.5c-0.4-4-0.4-8,1-11.8c1.1-3,3.2-7.6,7.6-3.7c1,1.2,1.8,2.5,2.2,4c1.2,4.6-1.3,6-7.3,4.4
				C477.1,366.7,476.6,366.9,476.7,367.2L476.7,367.2z"/>
		</g>
		<g>
			<path class="st3" d="M473.7,373.3c6.2,0.1,10-7.6,5.1-12c-7-6.2-12.9,2.7-14.1,9.1c-1.8,9.9,1.9,19.9,1.1,29.8
				c-0.5,6.2-3.7,15.1-11.4,15.1c-4.4,0-8.3-3.6-9-7.9c-0.4-2.4,0.1-4.8,1.2-6.9c0.5-1.1,1.2-2.1,2.1-2.9c3.7-3,6.2-2.4,7.6,1.9
				c0,0.5,0.7,0.5,0.7,0c0.4-3.1-2.3-5.2-5.3-4.7c-4,0.7-6.6,5.2-7.3,8.8c-1.5,8.7,8,16.3,15.8,10.8c8.4-6,7-18.5,6-27.4
				c-0.7-6.4-1.7-13.1,0.3-19.3c1.5-4.9,6.5-10.2,11.6-5.6c4.5,4.1,0.8,10.2-4.4,10.8C473.4,372.9,473.4,373.3,473.7,373.3
				L473.7,373.3z"/>
		</g>
		<g>
			<path class="st3" d="M473.6,359.6c-4.7,3.5-5.2,9.7-5.1,15.2c0.1,6.8,1.3,13.5,1.7,20.3c0.4,7.5-0.3,15.8-4.8,22
				c-2.6,3.6-7.3,7.4-12.1,5.9c-2.9-0.9-5-3.7-6.1-6.3c-0.8-1.7-1-3.5-0.7-5.4c1.2-4,3.5-3.7,6.9,1c-0.2,0.4,0.5,0.7,0.7,0.3
				c3.5-5.1-5.7-8.5-8.3-2.6c-3.3,7.4,5.3,16.3,12.7,13.9c9.7-3.2,12.8-15.3,12.9-24.4c0.1-6.3-1-12.6-1.6-18.9
				c-0.6-6.9-1.2-15.3,4.3-20.4C474.5,359.8,474,359.4,473.6,359.6L473.6,359.6z"/>
		</g>
	</g>
	<g>
		<g>
			<path class="st3" d="M90.2,367.2c-1.9,5.3-8.5,2.8-9.1-2.1c-0.5-4.2,4-11.9,8.9-8.5c6.6,4.7,4.7,16.4,3.5,23
				c-1,6-2.3,12.3-0.4,18.3c2.1,7,9.9,12.4,16.8,7.8c0.3-0.2,0.6,0.3,0.3,0.5c-8.8,6.8-17.7-3.1-18.8-11.6
				c-0.9-6.9,1.2-13.7,1.8-20.5c0.4-4,0.4-8-1-11.8c-1.1-3-3.2-7.6-7.6-3.7c-1,1.2-1.8,2.5-2.2,4c-1.2,4.6,1.3,6,7.3,4.4
				C89.8,366.7,90.3,366.9,90.2,367.2L90.2,367.2z"/>
		</g>
		<g>
			<path class="st3" d="M93.3,373.3c-6.2,0.1-10-7.6-5.1-12c7-6.2,12.9,2.7,14.1,9.1c1.8,9.9-1.9,19.9-1.1,29.8
				c0.5,6.2,3.7,15.1,11.4,15.1c4.4,0,8.3-3.6,9-7.9c0.4-2.4-0.1-4.8-1.2-6.9c-0.5-1.1-1.2-2.1-2.1-2.9c-3.7-3-6.2-2.4-7.6,1.9
				c0,0.5-0.7,0.5-0.7,0c-0.4-3.1,2.3-5.2,5.3-4.7c4,0.7,6.6,5.2,7.3,8.8c1.5,8.7-8,16.3-15.8,10.8c-8.4-6-7-18.5-6-27.4
				c0.7-6.4,1.7-13.1-0.3-19.3c-1.5-4.9-6.5-10.2-11.6-5.6c-4.5,4.1-0.8,10.2,4.4,10.8C93.5,372.9,93.5,373.3,93.3,373.3L93.3,373.3
				z"/>
		</g>
		<g>
			<path class="st3" d="M93.3,359.6c4.7,3.5,5.2,9.7,5.1,15.2c-0.1,6.8-1.3,13.5-1.7,20.3c-0.4,7.5,0.3,15.8,4.8,22
				c2.6,3.6,7.3,7.4,12.1,5.9c2.9-0.9,5-3.7,6.1-6.3c0.8-1.7,1-3.5,0.7-5.4c-1.2-4-3.5-3.7-6.9,1c0.2,0.4-0.5,0.7-0.7,0.3
				c-3.5-5.1,5.7-8.5,8.3-2.6c3.3,7.4-5.3,16.3-12.7,13.9c-9.7-3.2-12.8-15.3-12.9-24.4c-0.1-6.3,1-12.6,1.6-18.9
				c0.6-6.9,1.2-15.3-4.3-20.4C92.5,359.8,92.9,359.4,93.3,359.6L93.3,359.6z"/>
		</g>
	</g>
</g>
</svg>
